<mxfile host="Electron" modified="2024-05-21T21:34:26.826Z" agent="Mozilla/5.0 (Macintosh; Intel Mac OS X 10_15_7) AppleWebKit/537.36 (KHTML, like Gecko) draw.io/24.4.0 Chrome/120.0.6099.109 Electron/28.1.0 Safari/537.36" etag="j09IGzeqai4sze9SgVv1" version="24.4.0" type="device">
  <diagram name="Page-1" id="MWAQ0iZtQ8J0jfTP1CjT">
    <mxGraphModel dx="1088" dy="745" grid="1" gridSize="10" guides="1" tooltips="1" connect="1" arrows="1" fold="1" page="1" pageScale="1" pageWidth="1100" pageHeight="850" math="0" shadow="0">
      <root>
        <mxCell id="0" />
        <mxCell id="1" parent="0" />
        <mxCell id="f48sKgCeAc52ZoEBVjOV-11" style="edgeStyle=orthogonalEdgeStyle;rounded=0;orthogonalLoop=1;jettySize=auto;html=1;entryX=0.5;entryY=0;entryDx=0;entryDy=0;fontFamily=Times New Roman;" parent="1" source="Y4mBU43eQiTctoCK_1Iv-1" target="f48sKgCeAc52ZoEBVjOV-1" edge="1">
          <mxGeometry relative="1" as="geometry" />
        </mxCell>
        <mxCell id="Y4mBU43eQiTctoCK_1Iv-1" value="0" style="rounded=0;whiteSpace=wrap;html=1;fontFamily=Times New Roman;" parent="1" vertex="1">
          <mxGeometry x="120" y="40" width="40" height="40" as="geometry" />
        </mxCell>
        <mxCell id="f48sKgCeAc52ZoEBVjOV-12" style="edgeStyle=orthogonalEdgeStyle;rounded=0;orthogonalLoop=1;jettySize=auto;html=1;exitX=0.5;exitY=1;exitDx=0;exitDy=0;entryX=0.5;entryY=0;entryDx=0;entryDy=0;fontFamily=Times New Roman;" parent="1" source="f48sKgCeAc52ZoEBVjOV-1" target="f48sKgCeAc52ZoEBVjOV-3" edge="1">
          <mxGeometry relative="1" as="geometry" />
        </mxCell>
        <mxCell id="f48sKgCeAc52ZoEBVjOV-1" value="1" style="rounded=0;whiteSpace=wrap;html=1;fontFamily=Times New Roman;" parent="1" vertex="1">
          <mxGeometry x="120" y="120" width="40" height="40" as="geometry" />
        </mxCell>
        <mxCell id="f48sKgCeAc52ZoEBVjOV-13" style="edgeStyle=orthogonalEdgeStyle;rounded=0;orthogonalLoop=1;jettySize=auto;html=1;exitX=0.5;exitY=1;exitDx=0;exitDy=0;entryX=0.5;entryY=0;entryDx=0;entryDy=0;fontFamily=Times New Roman;" parent="1" source="f48sKgCeAc52ZoEBVjOV-2" target="f48sKgCeAc52ZoEBVjOV-4" edge="1">
          <mxGeometry relative="1" as="geometry" />
        </mxCell>
        <mxCell id="f48sKgCeAc52ZoEBVjOV-2" value="2" style="rounded=0;whiteSpace=wrap;html=1;fontFamily=Times New Roman;" parent="1" vertex="1">
          <mxGeometry x="200" y="120" width="40" height="40" as="geometry" />
        </mxCell>
        <mxCell id="f48sKgCeAc52ZoEBVjOV-21" style="edgeStyle=none;rounded=0;hachureGap=4;orthogonalLoop=1;jettySize=auto;html=1;entryX=0.5;entryY=0;entryDx=0;entryDy=0;strokeColor=default;align=center;verticalAlign=middle;fontFamily=Times New Roman;fontSize=11;fontColor=default;labelBackgroundColor=default;endArrow=classic;exitX=0.5;exitY=1;exitDx=0;exitDy=0;" parent="1" source="f48sKgCeAc52ZoEBVjOV-3" target="f48sKgCeAc52ZoEBVjOV-7" edge="1">
          <mxGeometry relative="1" as="geometry" />
        </mxCell>
        <mxCell id="f48sKgCeAc52ZoEBVjOV-22" style="edgeStyle=none;rounded=0;hachureGap=4;orthogonalLoop=1;jettySize=auto;html=1;exitX=0.5;exitY=1;exitDx=0;exitDy=0;entryX=0.5;entryY=0;entryDx=0;entryDy=0;strokeColor=default;align=center;verticalAlign=middle;fontFamily=Times New Roman;fontSize=11;fontColor=default;labelBackgroundColor=default;endArrow=classic;" parent="1" source="f48sKgCeAc52ZoEBVjOV-3" target="f48sKgCeAc52ZoEBVjOV-5" edge="1">
          <mxGeometry relative="1" as="geometry" />
        </mxCell>
        <mxCell id="f48sKgCeAc52ZoEBVjOV-3" value="3" style="rounded=0;whiteSpace=wrap;html=1;fontFamily=Times New Roman;" parent="1" vertex="1">
          <mxGeometry x="120" y="200" width="40" height="40" as="geometry" />
        </mxCell>
        <mxCell id="f48sKgCeAc52ZoEBVjOV-18" style="rounded=0;hachureGap=4;orthogonalLoop=1;jettySize=auto;html=1;exitX=0.5;exitY=1;exitDx=0;exitDy=0;fontFamily=Times New Roman;strokeColor=default;entryX=0.5;entryY=0;entryDx=0;entryDy=0;" parent="1" source="f48sKgCeAc52ZoEBVjOV-4" target="f48sKgCeAc52ZoEBVjOV-6" edge="1">
          <mxGeometry relative="1" as="geometry" />
        </mxCell>
        <mxCell id="f48sKgCeAc52ZoEBVjOV-20" style="edgeStyle=none;rounded=0;hachureGap=4;orthogonalLoop=1;jettySize=auto;html=1;entryX=0.5;entryY=0;entryDx=0;entryDy=0;strokeColor=default;align=center;verticalAlign=middle;fontFamily=Times New Roman;fontSize=11;fontColor=default;labelBackgroundColor=default;endArrow=classic;exitX=0.5;exitY=1;exitDx=0;exitDy=0;" parent="1" source="f48sKgCeAc52ZoEBVjOV-4" target="f48sKgCeAc52ZoEBVjOV-5" edge="1">
          <mxGeometry relative="1" as="geometry" />
        </mxCell>
        <mxCell id="f48sKgCeAc52ZoEBVjOV-4" value="7" style="rounded=0;whiteSpace=wrap;html=1;fontFamily=Times New Roman;" parent="1" vertex="1">
          <mxGeometry x="200" y="200" width="40" height="40" as="geometry" />
        </mxCell>
        <mxCell id="f48sKgCeAc52ZoEBVjOV-23" style="edgeStyle=none;rounded=0;hachureGap=4;orthogonalLoop=1;jettySize=auto;html=1;exitX=0.5;exitY=1;exitDx=0;exitDy=0;entryX=0.5;entryY=0;entryDx=0;entryDy=0;strokeColor=default;align=center;verticalAlign=middle;fontFamily=Times New Roman;fontSize=11;fontColor=default;labelBackgroundColor=default;endArrow=classic;" parent="1" source="f48sKgCeAc52ZoEBVjOV-5" target="f48sKgCeAc52ZoEBVjOV-10" edge="1">
          <mxGeometry relative="1" as="geometry" />
        </mxCell>
        <mxCell id="f48sKgCeAc52ZoEBVjOV-5" value="8" style="rounded=0;whiteSpace=wrap;html=1;fontFamily=Times New Roman;" parent="1" vertex="1">
          <mxGeometry x="160" y="280" width="40" height="40" as="geometry" />
        </mxCell>
        <mxCell id="f48sKgCeAc52ZoEBVjOV-6" value="10" style="rounded=0;whiteSpace=wrap;html=1;fontFamily=Times New Roman;" parent="1" vertex="1">
          <mxGeometry x="240" y="280" width="40" height="40" as="geometry" />
        </mxCell>
        <mxCell id="f48sKgCeAc52ZoEBVjOV-24" style="edgeStyle=none;rounded=0;hachureGap=4;orthogonalLoop=1;jettySize=auto;html=1;exitX=0.5;exitY=1;exitDx=0;exitDy=0;entryX=0.5;entryY=0;entryDx=0;entryDy=0;strokeColor=default;align=center;verticalAlign=middle;fontFamily=Times New Roman;fontSize=11;fontColor=default;labelBackgroundColor=default;endArrow=classic;" parent="1" source="f48sKgCeAc52ZoEBVjOV-7" target="f48sKgCeAc52ZoEBVjOV-9" edge="1">
          <mxGeometry relative="1" as="geometry" />
        </mxCell>
        <mxCell id="f48sKgCeAc52ZoEBVjOV-25" style="edgeStyle=none;rounded=0;hachureGap=4;orthogonalLoop=1;jettySize=auto;html=1;exitX=0.5;exitY=1;exitDx=0;exitDy=0;entryX=0.5;entryY=0;entryDx=0;entryDy=0;strokeColor=default;align=center;verticalAlign=middle;fontFamily=Times New Roman;fontSize=11;fontColor=default;labelBackgroundColor=default;endArrow=classic;" parent="1" source="f48sKgCeAc52ZoEBVjOV-7" target="f48sKgCeAc52ZoEBVjOV-8" edge="1">
          <mxGeometry relative="1" as="geometry" />
        </mxCell>
        <mxCell id="f48sKgCeAc52ZoEBVjOV-7" value="4" style="rounded=0;whiteSpace=wrap;html=1;fontFamily=Times New Roman;" parent="1" vertex="1">
          <mxGeometry x="70" y="280" width="40" height="40" as="geometry" />
        </mxCell>
        <mxCell id="f48sKgCeAc52ZoEBVjOV-8" value="5" style="rounded=0;whiteSpace=wrap;html=1;fontFamily=Times New Roman;" parent="1" vertex="1">
          <mxGeometry x="30" y="360" width="40" height="40" as="geometry" />
        </mxCell>
        <mxCell id="f48sKgCeAc52ZoEBVjOV-9" value="6" style="rounded=0;whiteSpace=wrap;html=1;fontFamily=Times New Roman;" parent="1" vertex="1">
          <mxGeometry x="110" y="360" width="40" height="40" as="geometry" />
        </mxCell>
        <mxCell id="f48sKgCeAc52ZoEBVjOV-10" value="9" style="rounded=0;whiteSpace=wrap;html=1;fontFamily=Times New Roman;" parent="1" vertex="1">
          <mxGeometry x="185" y="360" width="40" height="40" as="geometry" />
        </mxCell>
        <mxCell id="f48sKgCeAc52ZoEBVjOV-16" value="" style="endArrow=classic;html=1;rounded=0;exitX=0.5;exitY=1;exitDx=0;exitDy=0;entryX=0.5;entryY=0;entryDx=0;entryDy=0;fontFamily=Times New Roman;" parent="1" source="f48sKgCeAc52ZoEBVjOV-2" target="f48sKgCeAc52ZoEBVjOV-3" edge="1">
          <mxGeometry width="50" height="50" relative="1" as="geometry">
            <mxPoint x="390" y="330" as="sourcePoint" />
            <mxPoint x="440" y="280" as="targetPoint" />
          </mxGeometry>
        </mxCell>
        <mxCell id="f48sKgCeAc52ZoEBVjOV-28" value="&lt;p style=&quot;line-height: 100%; font-size: 11px;&quot;&gt;d = 0&lt;/p&gt;" style="text;html=1;align=center;verticalAlign=middle;whiteSpace=wrap;rounded=0;fontFamily=Times New Roman;fontSize=11;labelBackgroundColor=none;glass=0;fontStyle=0;fontColor=#1303FF;" parent="1" vertex="1">
          <mxGeometry x="160" y="40" width="30" height="25" as="geometry" />
        </mxCell>
        <mxCell id="f48sKgCeAc52ZoEBVjOV-29" value="&lt;p style=&quot;line-height: 100%; font-size: 11px;&quot;&gt;d = 0&lt;/p&gt;" style="text;html=1;align=center;verticalAlign=middle;whiteSpace=wrap;rounded=0;fontFamily=Times New Roman;fontSize=11;labelBackgroundColor=none;glass=0;fontStyle=0;fontColor=#1303FF;" parent="1" vertex="1">
          <mxGeometry x="240" y="120" width="30" height="25" as="geometry" />
        </mxCell>
        <mxCell id="f48sKgCeAc52ZoEBVjOV-30" value="&lt;p style=&quot;line-height: 100%; font-size: 11px;&quot;&gt;d = 1&lt;/p&gt;" style="text;html=1;align=center;verticalAlign=middle;whiteSpace=wrap;rounded=0;fontFamily=Times New Roman;fontSize=11;labelBackgroundColor=none;glass=0;fontStyle=0;fontColor=#1303FF;" parent="1" vertex="1">
          <mxGeometry x="160" y="120" width="30" height="25" as="geometry" />
        </mxCell>
        <mxCell id="f48sKgCeAc52ZoEBVjOV-31" value="&lt;p style=&quot;line-height: 100%; font-size: 11px;&quot;&gt;d = 2&lt;/p&gt;" style="text;html=1;align=center;verticalAlign=middle;whiteSpace=wrap;rounded=0;fontFamily=Times New Roman;fontSize=11;labelBackgroundColor=none;glass=0;fontStyle=0;fontColor=#1303FF;" parent="1" vertex="1">
          <mxGeometry x="160" y="200" width="30" height="25" as="geometry" />
        </mxCell>
        <mxCell id="f48sKgCeAc52ZoEBVjOV-32" value="&lt;p style=&quot;line-height: 100%; font-size: 11px;&quot;&gt;d = 1&lt;/p&gt;" style="text;html=1;align=center;verticalAlign=middle;whiteSpace=wrap;rounded=0;fontFamily=Times New Roman;fontSize=11;labelBackgroundColor=none;glass=0;fontStyle=0;fontColor=#1303FF;" parent="1" vertex="1">
          <mxGeometry x="240" y="200" width="30" height="25" as="geometry" />
        </mxCell>
        <mxCell id="f48sKgCeAc52ZoEBVjOV-33" value="&lt;p style=&quot;line-height: 100%; font-size: 11px;&quot;&gt;d = 2&lt;/p&gt;" style="text;html=1;align=center;verticalAlign=middle;whiteSpace=wrap;rounded=0;fontFamily=Times New Roman;fontSize=11;labelBackgroundColor=none;glass=0;fontStyle=0;fontColor=#1303FF;" parent="1" vertex="1">
          <mxGeometry x="280" y="280" width="30" height="25" as="geometry" />
        </mxCell>
        <mxCell id="f48sKgCeAc52ZoEBVjOV-34" value="&lt;p style=&quot;line-height: 100%; font-size: 11px;&quot;&gt;d = 3&lt;/p&gt;" style="text;html=1;align=center;verticalAlign=middle;whiteSpace=wrap;rounded=0;fontFamily=Times New Roman;fontSize=11;labelBackgroundColor=none;glass=0;fontStyle=0;fontColor=#1303FF;" parent="1" vertex="1">
          <mxGeometry x="200" y="280" width="30" height="25" as="geometry" />
        </mxCell>
        <mxCell id="f48sKgCeAc52ZoEBVjOV-35" value="&lt;p style=&quot;line-height: 100%; font-size: 11px;&quot;&gt;d = 3&lt;/p&gt;" style="text;html=1;align=center;verticalAlign=middle;whiteSpace=wrap;rounded=0;fontFamily=Times New Roman;fontSize=11;labelBackgroundColor=none;glass=0;fontStyle=0;fontColor=#1303FF;" parent="1" vertex="1">
          <mxGeometry x="110" y="280" width="30" height="25" as="geometry" />
        </mxCell>
        <mxCell id="f48sKgCeAc52ZoEBVjOV-36" value="&lt;p style=&quot;line-height: 100%; font-size: 11px;&quot;&gt;d = 4&lt;/p&gt;" style="text;html=1;align=center;verticalAlign=middle;whiteSpace=wrap;rounded=0;fontFamily=Times New Roman;fontSize=11;labelBackgroundColor=none;glass=0;fontStyle=0;fontColor=#1303FF;" parent="1" vertex="1">
          <mxGeometry x="70" y="360" width="30" height="25" as="geometry" />
        </mxCell>
        <mxCell id="f48sKgCeAc52ZoEBVjOV-37" value="&lt;p style=&quot;line-height: 100%; font-size: 11px;&quot;&gt;d = 4&lt;/p&gt;" style="text;html=1;align=center;verticalAlign=middle;whiteSpace=wrap;rounded=0;fontFamily=Times New Roman;fontSize=11;labelBackgroundColor=none;glass=0;fontStyle=0;fontColor=#1303FF;" parent="1" vertex="1">
          <mxGeometry x="150" y="360" width="30" height="25" as="geometry" />
        </mxCell>
        <mxCell id="f48sKgCeAc52ZoEBVjOV-38" value="&lt;p style=&quot;line-height: 100%; font-size: 11px;&quot;&gt;d = 4&lt;/p&gt;" style="text;html=1;align=center;verticalAlign=middle;whiteSpace=wrap;rounded=0;fontFamily=Times New Roman;fontSize=11;labelBackgroundColor=none;glass=0;fontStyle=0;fontColor=#1303FF;" parent="1" vertex="1">
          <mxGeometry x="225" y="360" width="30" height="25" as="geometry" />
        </mxCell>
        <mxCell id="f48sKgCeAc52ZoEBVjOV-97" style="edgeStyle=orthogonalEdgeStyle;rounded=0;orthogonalLoop=1;jettySize=auto;html=1;exitX=0.5;exitY=1;exitDx=0;exitDy=0;entryX=0.5;entryY=0;entryDx=0;entryDy=0;fontFamily=Times New Roman;" parent="1" source="f48sKgCeAc52ZoEBVjOV-93" target="f48sKgCeAc52ZoEBVjOV-95" edge="1">
          <mxGeometry relative="1" as="geometry" />
        </mxCell>
        <mxCell id="f48sKgCeAc52ZoEBVjOV-93" value="11" style="rounded=0;whiteSpace=wrap;html=1;fontFamily=Times New Roman;" parent="1" vertex="1">
          <mxGeometry x="40" y="40" width="40" height="40" as="geometry" />
        </mxCell>
        <mxCell id="f48sKgCeAc52ZoEBVjOV-94" value="&lt;p style=&quot;line-height: 100%; font-size: 11px;&quot;&gt;d = 0&lt;/p&gt;" style="text;html=1;align=center;verticalAlign=middle;whiteSpace=wrap;rounded=0;fontFamily=Times New Roman;fontSize=11;labelBackgroundColor=none;glass=0;fontStyle=0;fontColor=#1303FF;" parent="1" vertex="1">
          <mxGeometry x="80" y="40" width="30" height="25" as="geometry" />
        </mxCell>
        <mxCell id="f48sKgCeAc52ZoEBVjOV-95" value="12" style="rounded=0;whiteSpace=wrap;html=1;fontFamily=Times New Roman;" parent="1" vertex="1">
          <mxGeometry x="40" y="120" width="40" height="40" as="geometry" />
        </mxCell>
        <mxCell id="f48sKgCeAc52ZoEBVjOV-96" value="&lt;p style=&quot;line-height: 100%; font-size: 11px;&quot;&gt;d = 1&lt;/p&gt;" style="text;html=1;align=center;verticalAlign=middle;whiteSpace=wrap;rounded=0;fontFamily=Times New Roman;fontSize=11;labelBackgroundColor=none;glass=0;fontStyle=0;fontColor=#1303FF;" parent="1" vertex="1">
          <mxGeometry x="80" y="120" width="30" height="25" as="geometry" />
        </mxCell>
        <mxCell id="f48sKgCeAc52ZoEBVjOV-102" value="" style="shape=table;startSize=0;container=1;collapsible=0;childLayout=tableLayout;fontSize=16;" parent="1" vertex="1">
          <mxGeometry x="440" y="500" width="520.0000000000005" height="80" as="geometry" />
        </mxCell>
        <mxCell id="f48sKgCeAc52ZoEBVjOV-103" value="" style="shape=tableRow;horizontal=0;startSize=0;swimlaneHead=0;swimlaneBody=0;strokeColor=inherit;top=0;left=0;bottom=0;right=0;collapsible=0;dropTarget=0;fillColor=none;points=[[0,0.5],[1,0.5]];portConstraint=eastwest;fontSize=11;fontColor=#B3B3B3;" parent="f48sKgCeAc52ZoEBVjOV-102" vertex="1">
          <mxGeometry width="520.0000000000005" height="20" as="geometry" />
        </mxCell>
        <mxCell id="f48sKgCeAc52ZoEBVjOV-104" value="0&lt;span style=&quot;white-space: pre; font-size: 11px;&quot;&gt;&#x9;&lt;/span&gt;" style="shape=partialRectangle;html=1;whiteSpace=wrap;connectable=0;strokeColor=inherit;overflow=hidden;fillColor=none;top=0;left=0;bottom=0;right=0;pointerEvents=1;fontSize=11;fontColor=#B3B3B3;" parent="f48sKgCeAc52ZoEBVjOV-103" vertex="1">
          <mxGeometry width="40" height="20" as="geometry">
            <mxRectangle width="40" height="20" as="alternateBounds" />
          </mxGeometry>
        </mxCell>
        <mxCell id="f48sKgCeAc52ZoEBVjOV-105" value="1" style="shape=partialRectangle;html=1;whiteSpace=wrap;connectable=0;strokeColor=inherit;overflow=hidden;fillColor=none;top=0;left=0;bottom=0;right=0;pointerEvents=1;fontSize=11;fontColor=#B3B3B3;" parent="f48sKgCeAc52ZoEBVjOV-103" vertex="1">
          <mxGeometry x="40" width="40" height="20" as="geometry">
            <mxRectangle width="40" height="20" as="alternateBounds" />
          </mxGeometry>
        </mxCell>
        <mxCell id="f48sKgCeAc52ZoEBVjOV-106" value="2" style="shape=partialRectangle;html=1;whiteSpace=wrap;connectable=0;strokeColor=inherit;overflow=hidden;fillColor=none;top=0;left=0;bottom=0;right=0;pointerEvents=1;fontSize=11;fontColor=#B3B3B3;" parent="f48sKgCeAc52ZoEBVjOV-103" vertex="1">
          <mxGeometry x="80" width="40" height="20" as="geometry">
            <mxRectangle width="40" height="20" as="alternateBounds" />
          </mxGeometry>
        </mxCell>
        <mxCell id="f48sKgCeAc52ZoEBVjOV-107" value="3" style="shape=partialRectangle;html=1;whiteSpace=wrap;connectable=0;strokeColor=inherit;overflow=hidden;fillColor=none;top=0;left=0;bottom=0;right=0;pointerEvents=1;fontSize=11;fontColor=#B3B3B3;" parent="f48sKgCeAc52ZoEBVjOV-103" vertex="1">
          <mxGeometry x="120" width="40" height="20" as="geometry">
            <mxRectangle width="40" height="20" as="alternateBounds" />
          </mxGeometry>
        </mxCell>
        <mxCell id="f48sKgCeAc52ZoEBVjOV-108" value="4" style="shape=partialRectangle;html=1;whiteSpace=wrap;connectable=0;strokeColor=inherit;overflow=hidden;fillColor=none;top=0;left=0;bottom=0;right=0;pointerEvents=1;fontSize=11;fontColor=#B3B3B3;" parent="f48sKgCeAc52ZoEBVjOV-103" vertex="1">
          <mxGeometry x="160" width="40" height="20" as="geometry">
            <mxRectangle width="40" height="20" as="alternateBounds" />
          </mxGeometry>
        </mxCell>
        <mxCell id="f48sKgCeAc52ZoEBVjOV-109" value="5" style="shape=partialRectangle;html=1;whiteSpace=wrap;connectable=0;strokeColor=inherit;overflow=hidden;fillColor=none;top=0;left=0;bottom=0;right=0;pointerEvents=1;fontSize=11;fontColor=#B3B3B3;" parent="f48sKgCeAc52ZoEBVjOV-103" vertex="1">
          <mxGeometry x="200" width="40" height="20" as="geometry">
            <mxRectangle width="40" height="20" as="alternateBounds" />
          </mxGeometry>
        </mxCell>
        <mxCell id="f48sKgCeAc52ZoEBVjOV-110" value="6" style="shape=partialRectangle;html=1;whiteSpace=wrap;connectable=0;strokeColor=inherit;overflow=hidden;fillColor=none;top=0;left=0;bottom=0;right=0;pointerEvents=1;fontSize=11;fontColor=#B3B3B3;" parent="f48sKgCeAc52ZoEBVjOV-103" vertex="1">
          <mxGeometry x="240" width="40" height="20" as="geometry">
            <mxRectangle width="40" height="20" as="alternateBounds" />
          </mxGeometry>
        </mxCell>
        <mxCell id="f48sKgCeAc52ZoEBVjOV-111" value="7" style="shape=partialRectangle;html=1;whiteSpace=wrap;connectable=0;strokeColor=inherit;overflow=hidden;fillColor=none;top=0;left=0;bottom=0;right=0;pointerEvents=1;fontSize=11;fontColor=#B3B3B3;" parent="f48sKgCeAc52ZoEBVjOV-103" vertex="1">
          <mxGeometry x="280" width="40" height="20" as="geometry">
            <mxRectangle width="40" height="20" as="alternateBounds" />
          </mxGeometry>
        </mxCell>
        <mxCell id="f48sKgCeAc52ZoEBVjOV-112" value="8" style="shape=partialRectangle;html=1;whiteSpace=wrap;connectable=0;strokeColor=inherit;overflow=hidden;fillColor=none;top=0;left=0;bottom=0;right=0;pointerEvents=1;fontSize=11;fontColor=#B3B3B3;" parent="f48sKgCeAc52ZoEBVjOV-103" vertex="1">
          <mxGeometry x="320" width="40" height="20" as="geometry">
            <mxRectangle width="40" height="20" as="alternateBounds" />
          </mxGeometry>
        </mxCell>
        <mxCell id="f48sKgCeAc52ZoEBVjOV-113" value="9" style="shape=partialRectangle;html=1;whiteSpace=wrap;connectable=0;strokeColor=inherit;overflow=hidden;fillColor=none;top=0;left=0;bottom=0;right=0;pointerEvents=1;fontSize=11;fontColor=#B3B3B3;" parent="f48sKgCeAc52ZoEBVjOV-103" vertex="1">
          <mxGeometry x="360" width="40" height="20" as="geometry">
            <mxRectangle width="40" height="20" as="alternateBounds" />
          </mxGeometry>
        </mxCell>
        <mxCell id="f48sKgCeAc52ZoEBVjOV-114" value="10" style="shape=partialRectangle;html=1;whiteSpace=wrap;connectable=0;strokeColor=inherit;overflow=hidden;fillColor=none;top=0;left=0;bottom=0;right=0;pointerEvents=1;fontSize=11;fontColor=#B3B3B3;" parent="f48sKgCeAc52ZoEBVjOV-103" vertex="1">
          <mxGeometry x="400" width="40" height="20" as="geometry">
            <mxRectangle width="40" height="20" as="alternateBounds" />
          </mxGeometry>
        </mxCell>
        <mxCell id="f48sKgCeAc52ZoEBVjOV-115" value="11" style="shape=partialRectangle;html=1;whiteSpace=wrap;connectable=0;strokeColor=inherit;overflow=hidden;fillColor=none;top=0;left=0;bottom=0;right=0;pointerEvents=1;fontSize=11;fontColor=#B3B3B3;" parent="f48sKgCeAc52ZoEBVjOV-103" vertex="1">
          <mxGeometry x="440" width="40" height="20" as="geometry">
            <mxRectangle width="40" height="20" as="alternateBounds" />
          </mxGeometry>
        </mxCell>
        <mxCell id="f48sKgCeAc52ZoEBVjOV-116" value="12" style="shape=partialRectangle;html=1;whiteSpace=wrap;connectable=0;strokeColor=inherit;overflow=hidden;fillColor=none;top=0;left=0;bottom=0;right=0;pointerEvents=1;fontSize=11;fontColor=#B3B3B3;" parent="f48sKgCeAc52ZoEBVjOV-103" vertex="1">
          <mxGeometry x="480" width="40" height="20" as="geometry">
            <mxRectangle width="40" height="20" as="alternateBounds" />
          </mxGeometry>
        </mxCell>
        <mxCell id="f48sKgCeAc52ZoEBVjOV-117" value="" style="shape=tableRow;horizontal=0;startSize=0;swimlaneHead=0;swimlaneBody=0;strokeColor=inherit;top=0;left=0;bottom=0;right=0;collapsible=0;dropTarget=0;fillColor=none;points=[[0,0.5],[1,0.5]];portConstraint=eastwest;fontSize=12;" parent="f48sKgCeAc52ZoEBVjOV-102" vertex="1">
          <mxGeometry y="20" width="520.0000000000005" height="40" as="geometry" />
        </mxCell>
        <mxCell id="f48sKgCeAc52ZoEBVjOV-118" value="0" style="shape=partialRectangle;html=1;whiteSpace=wrap;connectable=0;strokeColor=inherit;overflow=hidden;fillColor=none;top=0;left=0;bottom=0;right=0;pointerEvents=1;fontSize=12;" parent="f48sKgCeAc52ZoEBVjOV-117" vertex="1">
          <mxGeometry width="40" height="40" as="geometry">
            <mxRectangle width="40" height="40" as="alternateBounds" />
          </mxGeometry>
        </mxCell>
        <mxCell id="f48sKgCeAc52ZoEBVjOV-119" value="2" style="shape=partialRectangle;html=1;whiteSpace=wrap;connectable=0;strokeColor=inherit;overflow=hidden;fillColor=none;top=0;left=0;bottom=0;right=0;pointerEvents=1;fontSize=12;" parent="f48sKgCeAc52ZoEBVjOV-117" vertex="1">
          <mxGeometry x="40" width="40" height="40" as="geometry">
            <mxRectangle width="40" height="40" as="alternateBounds" />
          </mxGeometry>
        </mxCell>
        <mxCell id="f48sKgCeAc52ZoEBVjOV-120" value="11" style="shape=partialRectangle;html=1;whiteSpace=wrap;connectable=0;strokeColor=inherit;overflow=hidden;fillColor=none;top=0;left=0;bottom=0;right=0;pointerEvents=1;fontSize=12;" parent="f48sKgCeAc52ZoEBVjOV-117" vertex="1">
          <mxGeometry x="80" width="40" height="40" as="geometry">
            <mxRectangle width="40" height="40" as="alternateBounds" />
          </mxGeometry>
        </mxCell>
        <mxCell id="f48sKgCeAc52ZoEBVjOV-121" value="1" style="shape=partialRectangle;html=1;whiteSpace=wrap;connectable=0;strokeColor=inherit;overflow=hidden;fillColor=none;top=0;left=0;bottom=0;right=0;pointerEvents=1;fontSize=12;" parent="f48sKgCeAc52ZoEBVjOV-117" vertex="1">
          <mxGeometry x="120" width="40" height="40" as="geometry">
            <mxRectangle width="40" height="40" as="alternateBounds" />
          </mxGeometry>
        </mxCell>
        <mxCell id="f48sKgCeAc52ZoEBVjOV-122" value="7" style="shape=partialRectangle;html=1;whiteSpace=wrap;connectable=0;strokeColor=inherit;overflow=hidden;fillColor=none;top=0;left=0;bottom=0;right=0;pointerEvents=1;fontSize=12;" parent="f48sKgCeAc52ZoEBVjOV-117" vertex="1">
          <mxGeometry x="160" width="40" height="40" as="geometry">
            <mxRectangle width="40" height="40" as="alternateBounds" />
          </mxGeometry>
        </mxCell>
        <mxCell id="f48sKgCeAc52ZoEBVjOV-123" value="12" style="shape=partialRectangle;html=1;whiteSpace=wrap;connectable=0;strokeColor=inherit;overflow=hidden;fillColor=none;top=0;left=0;bottom=0;right=0;pointerEvents=1;fontSize=12;" parent="f48sKgCeAc52ZoEBVjOV-117" vertex="1">
          <mxGeometry x="200" width="40" height="40" as="geometry">
            <mxRectangle width="40" height="40" as="alternateBounds" />
          </mxGeometry>
        </mxCell>
        <mxCell id="f48sKgCeAc52ZoEBVjOV-124" value="3" style="shape=partialRectangle;html=1;whiteSpace=wrap;connectable=0;strokeColor=inherit;overflow=hidden;fillColor=none;top=0;left=0;bottom=0;right=0;pointerEvents=1;fontSize=12;" parent="f48sKgCeAc52ZoEBVjOV-117" vertex="1">
          <mxGeometry x="240" width="40" height="40" as="geometry">
            <mxRectangle width="40" height="40" as="alternateBounds" />
          </mxGeometry>
        </mxCell>
        <mxCell id="f48sKgCeAc52ZoEBVjOV-125" value="10" style="shape=partialRectangle;html=1;whiteSpace=wrap;connectable=0;strokeColor=inherit;overflow=hidden;fillColor=none;top=0;left=0;bottom=0;right=0;pointerEvents=1;fontSize=12;" parent="f48sKgCeAc52ZoEBVjOV-117" vertex="1">
          <mxGeometry x="280" width="40" height="40" as="geometry">
            <mxRectangle width="40" height="40" as="alternateBounds" />
          </mxGeometry>
        </mxCell>
        <mxCell id="f48sKgCeAc52ZoEBVjOV-126" value="4" style="shape=partialRectangle;html=1;whiteSpace=wrap;connectable=0;strokeColor=inherit;overflow=hidden;fillColor=none;top=0;left=0;bottom=0;right=0;pointerEvents=1;fontSize=12;" parent="f48sKgCeAc52ZoEBVjOV-117" vertex="1">
          <mxGeometry x="320" width="40" height="40" as="geometry">
            <mxRectangle width="40" height="40" as="alternateBounds" />
          </mxGeometry>
        </mxCell>
        <mxCell id="f48sKgCeAc52ZoEBVjOV-127" value="8" style="shape=partialRectangle;html=1;whiteSpace=wrap;connectable=0;strokeColor=inherit;overflow=hidden;fillColor=none;top=0;left=0;bottom=0;right=0;pointerEvents=1;fontSize=12;" parent="f48sKgCeAc52ZoEBVjOV-117" vertex="1">
          <mxGeometry x="360" width="40" height="40" as="geometry">
            <mxRectangle width="40" height="40" as="alternateBounds" />
          </mxGeometry>
        </mxCell>
        <mxCell id="f48sKgCeAc52ZoEBVjOV-128" value="5" style="shape=partialRectangle;html=1;whiteSpace=wrap;connectable=0;strokeColor=inherit;overflow=hidden;fillColor=none;top=0;left=0;bottom=0;right=0;pointerEvents=1;fontSize=12;" parent="f48sKgCeAc52ZoEBVjOV-117" vertex="1">
          <mxGeometry x="400" width="40" height="40" as="geometry">
            <mxRectangle width="40" height="40" as="alternateBounds" />
          </mxGeometry>
        </mxCell>
        <mxCell id="f48sKgCeAc52ZoEBVjOV-129" value="6" style="shape=partialRectangle;html=1;whiteSpace=wrap;connectable=0;strokeColor=inherit;overflow=hidden;fillColor=none;top=0;left=0;bottom=0;right=0;pointerEvents=1;fontSize=12;" parent="f48sKgCeAc52ZoEBVjOV-117" vertex="1">
          <mxGeometry x="440" width="40" height="40" as="geometry">
            <mxRectangle width="40" height="40" as="alternateBounds" />
          </mxGeometry>
        </mxCell>
        <mxCell id="f48sKgCeAc52ZoEBVjOV-130" value="9" style="shape=partialRectangle;html=1;whiteSpace=wrap;connectable=0;strokeColor=inherit;overflow=hidden;fillColor=none;top=0;left=0;bottom=0;right=0;pointerEvents=1;fontSize=12;" parent="f48sKgCeAc52ZoEBVjOV-117" vertex="1">
          <mxGeometry x="480" width="40" height="40" as="geometry">
            <mxRectangle width="40" height="40" as="alternateBounds" />
          </mxGeometry>
        </mxCell>
        <mxCell id="f48sKgCeAc52ZoEBVjOV-174" style="shape=tableRow;horizontal=0;startSize=0;swimlaneHead=0;swimlaneBody=0;strokeColor=inherit;top=0;left=0;bottom=0;right=0;collapsible=0;dropTarget=0;fillColor=none;points=[[0,0.5],[1,0.5]];portConstraint=eastwest;fontSize=11;fontColor=#1303FF;" parent="f48sKgCeAc52ZoEBVjOV-102" vertex="1">
          <mxGeometry y="60" width="520.0000000000005" height="20" as="geometry" />
        </mxCell>
        <mxCell id="f48sKgCeAc52ZoEBVjOV-175" value="0" style="shape=partialRectangle;html=1;whiteSpace=wrap;connectable=0;strokeColor=inherit;overflow=hidden;fillColor=none;top=0;left=0;bottom=0;right=0;pointerEvents=1;fontSize=11;fontColor=#1303FF;" parent="f48sKgCeAc52ZoEBVjOV-174" vertex="1">
          <mxGeometry width="40" height="20" as="geometry">
            <mxRectangle width="40" height="20" as="alternateBounds" />
          </mxGeometry>
        </mxCell>
        <mxCell id="f48sKgCeAc52ZoEBVjOV-176" value="0" style="shape=partialRectangle;html=1;whiteSpace=wrap;connectable=0;strokeColor=inherit;overflow=hidden;fillColor=none;top=0;left=0;bottom=0;right=0;pointerEvents=1;fontSize=11;fontColor=#1303FF;" parent="f48sKgCeAc52ZoEBVjOV-174" vertex="1">
          <mxGeometry x="40" width="40" height="20" as="geometry">
            <mxRectangle width="40" height="20" as="alternateBounds" />
          </mxGeometry>
        </mxCell>
        <mxCell id="f48sKgCeAc52ZoEBVjOV-177" value="0" style="shape=partialRectangle;html=1;whiteSpace=wrap;connectable=0;strokeColor=inherit;overflow=hidden;fillColor=none;top=0;left=0;bottom=0;right=0;pointerEvents=1;fontSize=11;fontColor=#1303FF;" parent="f48sKgCeAc52ZoEBVjOV-174" vertex="1">
          <mxGeometry x="80" width="40" height="20" as="geometry">
            <mxRectangle width="40" height="20" as="alternateBounds" />
          </mxGeometry>
        </mxCell>
        <mxCell id="f48sKgCeAc52ZoEBVjOV-178" value="1" style="shape=partialRectangle;html=1;whiteSpace=wrap;connectable=0;strokeColor=inherit;overflow=hidden;fillColor=none;top=0;left=0;bottom=0;right=0;pointerEvents=1;fontSize=11;fontColor=#1303FF;" parent="f48sKgCeAc52ZoEBVjOV-174" vertex="1">
          <mxGeometry x="120" width="40" height="20" as="geometry">
            <mxRectangle width="40" height="20" as="alternateBounds" />
          </mxGeometry>
        </mxCell>
        <mxCell id="f48sKgCeAc52ZoEBVjOV-179" value="1" style="shape=partialRectangle;html=1;whiteSpace=wrap;connectable=0;strokeColor=inherit;overflow=hidden;fillColor=none;top=0;left=0;bottom=0;right=0;pointerEvents=1;fontSize=11;fontColor=#1303FF;" parent="f48sKgCeAc52ZoEBVjOV-174" vertex="1">
          <mxGeometry x="160" width="40" height="20" as="geometry">
            <mxRectangle width="40" height="20" as="alternateBounds" />
          </mxGeometry>
        </mxCell>
        <mxCell id="f48sKgCeAc52ZoEBVjOV-180" value="1" style="shape=partialRectangle;html=1;whiteSpace=wrap;connectable=0;strokeColor=inherit;overflow=hidden;fillColor=none;top=0;left=0;bottom=0;right=0;pointerEvents=1;fontSize=11;fontColor=#1303FF;" parent="f48sKgCeAc52ZoEBVjOV-174" vertex="1">
          <mxGeometry x="200" width="40" height="20" as="geometry">
            <mxRectangle width="40" height="20" as="alternateBounds" />
          </mxGeometry>
        </mxCell>
        <mxCell id="f48sKgCeAc52ZoEBVjOV-181" value="2" style="shape=partialRectangle;html=1;whiteSpace=wrap;connectable=0;strokeColor=inherit;overflow=hidden;fillColor=none;top=0;left=0;bottom=0;right=0;pointerEvents=1;fontSize=11;fontColor=#1303FF;" parent="f48sKgCeAc52ZoEBVjOV-174" vertex="1">
          <mxGeometry x="240" width="40" height="20" as="geometry">
            <mxRectangle width="40" height="20" as="alternateBounds" />
          </mxGeometry>
        </mxCell>
        <mxCell id="f48sKgCeAc52ZoEBVjOV-182" value="2" style="shape=partialRectangle;html=1;whiteSpace=wrap;connectable=0;strokeColor=inherit;overflow=hidden;fillColor=none;top=0;left=0;bottom=0;right=0;pointerEvents=1;fontSize=11;fontColor=#1303FF;" parent="f48sKgCeAc52ZoEBVjOV-174" vertex="1">
          <mxGeometry x="280" width="40" height="20" as="geometry">
            <mxRectangle width="40" height="20" as="alternateBounds" />
          </mxGeometry>
        </mxCell>
        <mxCell id="f48sKgCeAc52ZoEBVjOV-183" value="3" style="shape=partialRectangle;html=1;whiteSpace=wrap;connectable=0;strokeColor=inherit;overflow=hidden;fillColor=none;top=0;left=0;bottom=0;right=0;pointerEvents=1;fontSize=11;fontColor=#1303FF;" parent="f48sKgCeAc52ZoEBVjOV-174" vertex="1">
          <mxGeometry x="320" width="40" height="20" as="geometry">
            <mxRectangle width="40" height="20" as="alternateBounds" />
          </mxGeometry>
        </mxCell>
        <mxCell id="f48sKgCeAc52ZoEBVjOV-184" value="3" style="shape=partialRectangle;html=1;whiteSpace=wrap;connectable=0;strokeColor=inherit;overflow=hidden;fillColor=none;top=0;left=0;bottom=0;right=0;pointerEvents=1;fontSize=11;fontColor=#1303FF;" parent="f48sKgCeAc52ZoEBVjOV-174" vertex="1">
          <mxGeometry x="360" width="40" height="20" as="geometry">
            <mxRectangle width="40" height="20" as="alternateBounds" />
          </mxGeometry>
        </mxCell>
        <mxCell id="f48sKgCeAc52ZoEBVjOV-185" value="4" style="shape=partialRectangle;html=1;whiteSpace=wrap;connectable=0;strokeColor=inherit;overflow=hidden;fillColor=none;top=0;left=0;bottom=0;right=0;pointerEvents=1;fontSize=11;fontColor=#1303FF;" parent="f48sKgCeAc52ZoEBVjOV-174" vertex="1">
          <mxGeometry x="400" width="40" height="20" as="geometry">
            <mxRectangle width="40" height="20" as="alternateBounds" />
          </mxGeometry>
        </mxCell>
        <mxCell id="f48sKgCeAc52ZoEBVjOV-186" value="4" style="shape=partialRectangle;html=1;whiteSpace=wrap;connectable=0;strokeColor=inherit;overflow=hidden;fillColor=none;top=0;left=0;bottom=0;right=0;pointerEvents=1;fontSize=11;fontColor=#1303FF;" parent="f48sKgCeAc52ZoEBVjOV-174" vertex="1">
          <mxGeometry x="440" width="40" height="20" as="geometry">
            <mxRectangle width="40" height="20" as="alternateBounds" />
          </mxGeometry>
        </mxCell>
        <mxCell id="f48sKgCeAc52ZoEBVjOV-187" value="4" style="shape=partialRectangle;html=1;whiteSpace=wrap;connectable=0;strokeColor=inherit;overflow=hidden;fillColor=none;top=0;left=0;bottom=0;right=0;pointerEvents=1;fontSize=11;fontColor=#1303FF;" parent="f48sKgCeAc52ZoEBVjOV-174" vertex="1">
          <mxGeometry x="480" width="40" height="20" as="geometry">
            <mxRectangle width="40" height="20" as="alternateBounds" />
          </mxGeometry>
        </mxCell>
        <mxCell id="f48sKgCeAc52ZoEBVjOV-193" style="edgeStyle=orthogonalEdgeStyle;rounded=0;orthogonalLoop=1;jettySize=auto;html=1;entryX=0.5;entryY=0;entryDx=0;entryDy=0;" parent="1" source="f48sKgCeAc52ZoEBVjOV-194" target="f48sKgCeAc52ZoEBVjOV-196" edge="1">
          <mxGeometry relative="1" as="geometry" />
        </mxCell>
        <mxCell id="f48sKgCeAc52ZoEBVjOV-194" value="0" style="rounded=0;whiteSpace=wrap;html=1;" parent="1" vertex="1">
          <mxGeometry x="120" y="480" width="40" height="40" as="geometry" />
        </mxCell>
        <mxCell id="f48sKgCeAc52ZoEBVjOV-195" style="edgeStyle=orthogonalEdgeStyle;rounded=0;orthogonalLoop=1;jettySize=auto;html=1;exitX=0.5;exitY=1;exitDx=0;exitDy=0;entryX=0.5;entryY=0;entryDx=0;entryDy=0;" parent="1" source="f48sKgCeAc52ZoEBVjOV-196" target="f48sKgCeAc52ZoEBVjOV-201" edge="1">
          <mxGeometry relative="1" as="geometry" />
        </mxCell>
        <mxCell id="f48sKgCeAc52ZoEBVjOV-196" value="1" style="rounded=0;whiteSpace=wrap;html=1;" parent="1" vertex="1">
          <mxGeometry x="120" y="560" width="40" height="40" as="geometry" />
        </mxCell>
        <mxCell id="f48sKgCeAc52ZoEBVjOV-197" style="edgeStyle=orthogonalEdgeStyle;rounded=0;orthogonalLoop=1;jettySize=auto;html=1;exitX=0.5;exitY=1;exitDx=0;exitDy=0;entryX=0.5;entryY=0;entryDx=0;entryDy=0;" parent="1" source="f48sKgCeAc52ZoEBVjOV-198" target="f48sKgCeAc52ZoEBVjOV-204" edge="1">
          <mxGeometry relative="1" as="geometry" />
        </mxCell>
        <mxCell id="f48sKgCeAc52ZoEBVjOV-198" value="2" style="rounded=0;whiteSpace=wrap;html=1;" parent="1" vertex="1">
          <mxGeometry x="240" y="560" width="40" height="40" as="geometry" />
        </mxCell>
        <mxCell id="f48sKgCeAc52ZoEBVjOV-199" style="edgeStyle=none;rounded=0;hachureGap=4;orthogonalLoop=1;jettySize=auto;html=1;entryX=0.5;entryY=0;entryDx=0;entryDy=0;strokeColor=default;align=center;verticalAlign=middle;fontFamily=Architects Daughter;fontSource=https%3A%2F%2Ffonts.googleapis.com%2Fcss%3Ffamily%3DArchitects%2BDaughter;fontSize=11;fontColor=default;labelBackgroundColor=default;endArrow=classic;exitX=0.5;exitY=1;exitDx=0;exitDy=0;" parent="1" source="f48sKgCeAc52ZoEBVjOV-201" target="f48sKgCeAc52ZoEBVjOV-210" edge="1">
          <mxGeometry relative="1" as="geometry" />
        </mxCell>
        <mxCell id="f48sKgCeAc52ZoEBVjOV-200" style="edgeStyle=none;rounded=0;hachureGap=4;orthogonalLoop=1;jettySize=auto;html=1;exitX=0.5;exitY=1;exitDx=0;exitDy=0;entryX=0.5;entryY=0;entryDx=0;entryDy=0;strokeColor=default;align=center;verticalAlign=middle;fontFamily=Architects Daughter;fontSource=https%3A%2F%2Ffonts.googleapis.com%2Fcss%3Ffamily%3DArchitects%2BDaughter;fontSize=11;fontColor=default;labelBackgroundColor=default;endArrow=classic;" parent="1" source="f48sKgCeAc52ZoEBVjOV-201" target="f48sKgCeAc52ZoEBVjOV-206" edge="1">
          <mxGeometry relative="1" as="geometry" />
        </mxCell>
        <mxCell id="f48sKgCeAc52ZoEBVjOV-201" value="3" style="rounded=0;whiteSpace=wrap;html=1;" parent="1" vertex="1">
          <mxGeometry x="120" y="640" width="40" height="40" as="geometry" />
        </mxCell>
        <mxCell id="f48sKgCeAc52ZoEBVjOV-202" style="rounded=0;hachureGap=4;orthogonalLoop=1;jettySize=auto;html=1;exitX=0.5;exitY=1;exitDx=0;exitDy=0;fontFamily=Architects Daughter;fontSource=https%3A%2F%2Ffonts.googleapis.com%2Fcss%3Ffamily%3DArchitects%2BDaughter;strokeColor=default;entryX=0.5;entryY=0;entryDx=0;entryDy=0;" parent="1" source="f48sKgCeAc52ZoEBVjOV-204" target="f48sKgCeAc52ZoEBVjOV-207" edge="1">
          <mxGeometry relative="1" as="geometry" />
        </mxCell>
        <mxCell id="f48sKgCeAc52ZoEBVjOV-203" style="edgeStyle=none;rounded=0;hachureGap=4;orthogonalLoop=1;jettySize=auto;html=1;entryX=0.5;entryY=0;entryDx=0;entryDy=0;strokeColor=default;align=center;verticalAlign=middle;fontFamily=Architects Daughter;fontSource=https%3A%2F%2Ffonts.googleapis.com%2Fcss%3Ffamily%3DArchitects%2BDaughter;fontSize=11;fontColor=default;labelBackgroundColor=default;endArrow=classic;exitX=0.5;exitY=1;exitDx=0;exitDy=0;" parent="1" source="f48sKgCeAc52ZoEBVjOV-204" target="f48sKgCeAc52ZoEBVjOV-206" edge="1">
          <mxGeometry relative="1" as="geometry" />
        </mxCell>
        <mxCell id="f48sKgCeAc52ZoEBVjOV-204" value="7" style="rounded=0;whiteSpace=wrap;html=1;" parent="1" vertex="1">
          <mxGeometry x="240" y="640" width="40" height="40" as="geometry" />
        </mxCell>
        <mxCell id="f48sKgCeAc52ZoEBVjOV-205" style="edgeStyle=none;rounded=0;hachureGap=4;orthogonalLoop=1;jettySize=auto;html=1;exitX=0.5;exitY=1;exitDx=0;exitDy=0;entryX=0.5;entryY=0;entryDx=0;entryDy=0;strokeColor=default;align=center;verticalAlign=middle;fontFamily=Architects Daughter;fontSource=https%3A%2F%2Ffonts.googleapis.com%2Fcss%3Ffamily%3DArchitects%2BDaughter;fontSize=11;fontColor=default;labelBackgroundColor=default;endArrow=classic;" parent="1" source="f48sKgCeAc52ZoEBVjOV-206" target="f48sKgCeAc52ZoEBVjOV-213" edge="1">
          <mxGeometry relative="1" as="geometry" />
        </mxCell>
        <mxCell id="f48sKgCeAc52ZoEBVjOV-206" value="8" style="rounded=0;whiteSpace=wrap;html=1;" parent="1" vertex="1">
          <mxGeometry x="180" y="720" width="40" height="40" as="geometry" />
        </mxCell>
        <mxCell id="f48sKgCeAc52ZoEBVjOV-207" value="10" style="rounded=0;whiteSpace=wrap;html=1;" parent="1" vertex="1">
          <mxGeometry x="300" y="720" width="40" height="40" as="geometry" />
        </mxCell>
        <mxCell id="f48sKgCeAc52ZoEBVjOV-208" style="edgeStyle=none;rounded=0;hachureGap=4;orthogonalLoop=1;jettySize=auto;html=1;exitX=0.5;exitY=1;exitDx=0;exitDy=0;entryX=0.5;entryY=0;entryDx=0;entryDy=0;strokeColor=default;align=center;verticalAlign=middle;fontFamily=Architects Daughter;fontSource=https%3A%2F%2Ffonts.googleapis.com%2Fcss%3Ffamily%3DArchitects%2BDaughter;fontSize=11;fontColor=default;labelBackgroundColor=default;endArrow=classic;" parent="1" source="f48sKgCeAc52ZoEBVjOV-210" target="f48sKgCeAc52ZoEBVjOV-212" edge="1">
          <mxGeometry relative="1" as="geometry" />
        </mxCell>
        <mxCell id="f48sKgCeAc52ZoEBVjOV-209" style="edgeStyle=none;rounded=0;hachureGap=4;orthogonalLoop=1;jettySize=auto;html=1;exitX=0.5;exitY=1;exitDx=0;exitDy=0;entryX=0.5;entryY=0;entryDx=0;entryDy=0;strokeColor=default;align=center;verticalAlign=middle;fontFamily=Architects Daughter;fontSource=https%3A%2F%2Ffonts.googleapis.com%2Fcss%3Ffamily%3DArchitects%2BDaughter;fontSize=11;fontColor=default;labelBackgroundColor=default;endArrow=classic;" parent="1" source="f48sKgCeAc52ZoEBVjOV-210" target="f48sKgCeAc52ZoEBVjOV-211" edge="1">
          <mxGeometry relative="1" as="geometry" />
        </mxCell>
        <mxCell id="f48sKgCeAc52ZoEBVjOV-210" value="4" style="rounded=0;whiteSpace=wrap;html=1;" parent="1" vertex="1">
          <mxGeometry x="60" y="720" width="40" height="40" as="geometry" />
        </mxCell>
        <mxCell id="f48sKgCeAc52ZoEBVjOV-211" value="5" style="rounded=0;whiteSpace=wrap;html=1;" parent="1" vertex="1">
          <mxGeometry x="20" y="800" width="40" height="40" as="geometry" />
        </mxCell>
        <mxCell id="f48sKgCeAc52ZoEBVjOV-212" value="6" style="rounded=0;whiteSpace=wrap;html=1;" parent="1" vertex="1">
          <mxGeometry x="100" y="800" width="40" height="40" as="geometry" />
        </mxCell>
        <mxCell id="f48sKgCeAc52ZoEBVjOV-213" value="9" style="rounded=0;whiteSpace=wrap;html=1;" parent="1" vertex="1">
          <mxGeometry x="180" y="800" width="40" height="40" as="geometry" />
        </mxCell>
        <mxCell id="f48sKgCeAc52ZoEBVjOV-214" value="" style="endArrow=classic;html=1;rounded=0;exitX=0.5;exitY=1;exitDx=0;exitDy=0;entryX=0.5;entryY=0;entryDx=0;entryDy=0;" parent="1" source="f48sKgCeAc52ZoEBVjOV-198" target="f48sKgCeAc52ZoEBVjOV-201" edge="1">
          <mxGeometry width="50" height="50" relative="1" as="geometry">
            <mxPoint x="390" y="770" as="sourcePoint" />
            <mxPoint x="440" y="720" as="targetPoint" />
          </mxGeometry>
        </mxCell>
        <mxCell id="f48sKgCeAc52ZoEBVjOV-215" value="&lt;p style=&quot;line-height: 100%; font-size: 11px;&quot;&gt;d=0&lt;/p&gt;" style="text;html=1;align=center;verticalAlign=middle;whiteSpace=wrap;rounded=0;fontFamily=Verdana;fontSize=11;labelBackgroundColor=none;glass=0;fontStyle=0;fontColor=#1303FF;" parent="1" vertex="1">
          <mxGeometry x="160" y="480" width="30" height="25" as="geometry" />
        </mxCell>
        <mxCell id="f48sKgCeAc52ZoEBVjOV-216" value="&lt;p style=&quot;line-height: 100%; font-size: 11px;&quot;&gt;d=0&lt;/p&gt;" style="text;html=1;align=center;verticalAlign=middle;whiteSpace=wrap;rounded=0;fontFamily=Verdana;fontSize=11;labelBackgroundColor=none;glass=0;fontStyle=0;fontColor=#1303FF;" parent="1" vertex="1">
          <mxGeometry x="280" y="560" width="30" height="25" as="geometry" />
        </mxCell>
        <mxCell id="f48sKgCeAc52ZoEBVjOV-217" value="&lt;p style=&quot;line-height: 100%; font-size: 11px;&quot;&gt;d=1&lt;/p&gt;" style="text;html=1;align=center;verticalAlign=middle;whiteSpace=wrap;rounded=0;fontFamily=Verdana;fontSize=11;labelBackgroundColor=none;glass=0;fontStyle=0;fontColor=#1303FF;" parent="1" vertex="1">
          <mxGeometry x="160" y="560" width="30" height="25" as="geometry" />
        </mxCell>
        <mxCell id="f48sKgCeAc52ZoEBVjOV-218" value="&lt;p style=&quot;line-height: 100%; font-size: 11px;&quot;&gt;d=2&lt;/p&gt;" style="text;html=1;align=center;verticalAlign=middle;whiteSpace=wrap;rounded=0;fontFamily=Verdana;fontSize=11;labelBackgroundColor=none;glass=0;fontStyle=0;fontColor=#1303FF;" parent="1" vertex="1">
          <mxGeometry x="160" y="640" width="30" height="25" as="geometry" />
        </mxCell>
        <mxCell id="f48sKgCeAc52ZoEBVjOV-219" value="&lt;p style=&quot;line-height: 100%; font-size: 11px;&quot;&gt;d=1&lt;/p&gt;" style="text;html=1;align=center;verticalAlign=middle;whiteSpace=wrap;rounded=0;fontFamily=Verdana;fontSize=11;labelBackgroundColor=none;glass=0;fontStyle=0;fontColor=#1303FF;" parent="1" vertex="1">
          <mxGeometry x="280" y="640" width="30" height="25" as="geometry" />
        </mxCell>
        <mxCell id="f48sKgCeAc52ZoEBVjOV-220" value="&lt;p style=&quot;line-height: 100%; font-size: 11px;&quot;&gt;d=2&lt;/p&gt;" style="text;html=1;align=center;verticalAlign=middle;whiteSpace=wrap;rounded=0;fontFamily=Verdana;fontSize=11;labelBackgroundColor=none;glass=0;fontStyle=0;fontColor=#1303FF;" parent="1" vertex="1">
          <mxGeometry x="340" y="720" width="30" height="25" as="geometry" />
        </mxCell>
        <mxCell id="f48sKgCeAc52ZoEBVjOV-221" value="&lt;p style=&quot;line-height: 100%; font-size: 11px;&quot;&gt;d=3&lt;/p&gt;" style="text;html=1;align=center;verticalAlign=middle;whiteSpace=wrap;rounded=0;fontFamily=Verdana;fontSize=11;labelBackgroundColor=none;glass=0;fontStyle=0;fontColor=#1303FF;" parent="1" vertex="1">
          <mxGeometry x="220" y="720" width="30" height="25" as="geometry" />
        </mxCell>
        <mxCell id="f48sKgCeAc52ZoEBVjOV-222" value="&lt;p style=&quot;line-height: 100%; font-size: 11px;&quot;&gt;d=3&lt;/p&gt;" style="text;html=1;align=center;verticalAlign=middle;whiteSpace=wrap;rounded=0;fontFamily=Verdana;fontSize=11;labelBackgroundColor=none;glass=0;fontStyle=0;fontColor=#1303FF;" parent="1" vertex="1">
          <mxGeometry x="100" y="720" width="30" height="25" as="geometry" />
        </mxCell>
        <mxCell id="f48sKgCeAc52ZoEBVjOV-223" value="&lt;p style=&quot;line-height: 100%; font-size: 11px;&quot;&gt;d=4&lt;/p&gt;" style="text;html=1;align=center;verticalAlign=middle;whiteSpace=wrap;rounded=0;fontFamily=Verdana;fontSize=11;labelBackgroundColor=none;glass=0;fontStyle=0;fontColor=#1303FF;" parent="1" vertex="1">
          <mxGeometry x="60" y="800" width="30" height="25" as="geometry" />
        </mxCell>
        <mxCell id="f48sKgCeAc52ZoEBVjOV-224" value="&lt;p style=&quot;line-height: 100%; font-size: 11px;&quot;&gt;d=4&lt;/p&gt;" style="text;html=1;align=center;verticalAlign=middle;whiteSpace=wrap;rounded=0;fontFamily=Verdana;fontSize=11;labelBackgroundColor=none;glass=0;fontStyle=0;fontColor=#1303FF;" parent="1" vertex="1">
          <mxGeometry x="140" y="800" width="30" height="25" as="geometry" />
        </mxCell>
        <mxCell id="f48sKgCeAc52ZoEBVjOV-225" value="&lt;p style=&quot;line-height: 100%; font-size: 11px;&quot;&gt;d=4&lt;/p&gt;" style="text;html=1;align=center;verticalAlign=middle;whiteSpace=wrap;rounded=0;fontFamily=Verdana;fontSize=11;labelBackgroundColor=none;glass=0;fontStyle=0;fontColor=#1303FF;" parent="1" vertex="1">
          <mxGeometry x="220" y="800" width="30" height="25" as="geometry" />
        </mxCell>
        <mxCell id="f48sKgCeAc52ZoEBVjOV-226" value="" style="shape=table;startSize=0;container=1;collapsible=0;childLayout=tableLayout;fontSize=16;" parent="1" vertex="1">
          <mxGeometry x="440" y="600" width="520.0000000000005" height="80" as="geometry" />
        </mxCell>
        <mxCell id="f48sKgCeAc52ZoEBVjOV-227" value="" style="shape=tableRow;horizontal=0;startSize=0;swimlaneHead=0;swimlaneBody=0;strokeColor=inherit;top=0;left=0;bottom=0;right=0;collapsible=0;dropTarget=0;fillColor=none;points=[[0,0.5],[1,0.5]];portConstraint=eastwest;fontSize=11;fontColor=#B3B3B3;" parent="f48sKgCeAc52ZoEBVjOV-226" vertex="1">
          <mxGeometry width="520.0000000000005" height="20" as="geometry" />
        </mxCell>
        <mxCell id="f48sKgCeAc52ZoEBVjOV-228" value="0&lt;span style=&quot;white-space: pre; font-size: 11px;&quot;&gt;&#x9;&lt;/span&gt;" style="shape=partialRectangle;html=1;whiteSpace=wrap;connectable=0;strokeColor=inherit;overflow=hidden;fillColor=none;top=0;left=0;bottom=0;right=0;pointerEvents=1;fontSize=11;fontColor=#B3B3B3;" parent="f48sKgCeAc52ZoEBVjOV-227" vertex="1">
          <mxGeometry width="40" height="20" as="geometry">
            <mxRectangle width="40" height="20" as="alternateBounds" />
          </mxGeometry>
        </mxCell>
        <mxCell id="f48sKgCeAc52ZoEBVjOV-229" value="1" style="shape=partialRectangle;html=1;whiteSpace=wrap;connectable=0;strokeColor=inherit;overflow=hidden;fillColor=none;top=0;left=0;bottom=0;right=0;pointerEvents=1;fontSize=11;fontColor=#B3B3B3;" parent="f48sKgCeAc52ZoEBVjOV-227" vertex="1">
          <mxGeometry x="40" width="40" height="20" as="geometry">
            <mxRectangle width="40" height="20" as="alternateBounds" />
          </mxGeometry>
        </mxCell>
        <mxCell id="f48sKgCeAc52ZoEBVjOV-230" value="2" style="shape=partialRectangle;html=1;whiteSpace=wrap;connectable=0;strokeColor=inherit;overflow=hidden;fillColor=none;top=0;left=0;bottom=0;right=0;pointerEvents=1;fontSize=11;fontColor=#B3B3B3;" parent="f48sKgCeAc52ZoEBVjOV-227" vertex="1">
          <mxGeometry x="80" width="40" height="20" as="geometry">
            <mxRectangle width="40" height="20" as="alternateBounds" />
          </mxGeometry>
        </mxCell>
        <mxCell id="f48sKgCeAc52ZoEBVjOV-231" value="3" style="shape=partialRectangle;html=1;whiteSpace=wrap;connectable=0;strokeColor=inherit;overflow=hidden;fillColor=none;top=0;left=0;bottom=0;right=0;pointerEvents=1;fontSize=11;fontColor=#B3B3B3;" parent="f48sKgCeAc52ZoEBVjOV-227" vertex="1">
          <mxGeometry x="120" width="40" height="20" as="geometry">
            <mxRectangle width="40" height="20" as="alternateBounds" />
          </mxGeometry>
        </mxCell>
        <mxCell id="f48sKgCeAc52ZoEBVjOV-232" value="4" style="shape=partialRectangle;html=1;whiteSpace=wrap;connectable=0;strokeColor=inherit;overflow=hidden;fillColor=none;top=0;left=0;bottom=0;right=0;pointerEvents=1;fontSize=11;fontColor=#B3B3B3;" parent="f48sKgCeAc52ZoEBVjOV-227" vertex="1">
          <mxGeometry x="160" width="40" height="20" as="geometry">
            <mxRectangle width="40" height="20" as="alternateBounds" />
          </mxGeometry>
        </mxCell>
        <mxCell id="f48sKgCeAc52ZoEBVjOV-233" value="5" style="shape=partialRectangle;html=1;whiteSpace=wrap;connectable=0;strokeColor=inherit;overflow=hidden;fillColor=none;top=0;left=0;bottom=0;right=0;pointerEvents=1;fontSize=11;fontColor=#B3B3B3;" parent="f48sKgCeAc52ZoEBVjOV-227" vertex="1">
          <mxGeometry x="200" width="40" height="20" as="geometry">
            <mxRectangle width="40" height="20" as="alternateBounds" />
          </mxGeometry>
        </mxCell>
        <mxCell id="f48sKgCeAc52ZoEBVjOV-234" value="6" style="shape=partialRectangle;html=1;whiteSpace=wrap;connectable=0;strokeColor=inherit;overflow=hidden;fillColor=none;top=0;left=0;bottom=0;right=0;pointerEvents=1;fontSize=11;fontColor=#B3B3B3;" parent="f48sKgCeAc52ZoEBVjOV-227" vertex="1">
          <mxGeometry x="240" width="40" height="20" as="geometry">
            <mxRectangle width="40" height="20" as="alternateBounds" />
          </mxGeometry>
        </mxCell>
        <mxCell id="f48sKgCeAc52ZoEBVjOV-235" value="7" style="shape=partialRectangle;html=1;whiteSpace=wrap;connectable=0;strokeColor=inherit;overflow=hidden;fillColor=none;top=0;left=0;bottom=0;right=0;pointerEvents=1;fontSize=11;fontColor=#B3B3B3;" parent="f48sKgCeAc52ZoEBVjOV-227" vertex="1">
          <mxGeometry x="280" width="40" height="20" as="geometry">
            <mxRectangle width="40" height="20" as="alternateBounds" />
          </mxGeometry>
        </mxCell>
        <mxCell id="f48sKgCeAc52ZoEBVjOV-236" value="8" style="shape=partialRectangle;html=1;whiteSpace=wrap;connectable=0;strokeColor=inherit;overflow=hidden;fillColor=none;top=0;left=0;bottom=0;right=0;pointerEvents=1;fontSize=11;fontColor=#B3B3B3;" parent="f48sKgCeAc52ZoEBVjOV-227" vertex="1">
          <mxGeometry x="320" width="40" height="20" as="geometry">
            <mxRectangle width="40" height="20" as="alternateBounds" />
          </mxGeometry>
        </mxCell>
        <mxCell id="f48sKgCeAc52ZoEBVjOV-237" value="9" style="shape=partialRectangle;html=1;whiteSpace=wrap;connectable=0;strokeColor=inherit;overflow=hidden;fillColor=none;top=0;left=0;bottom=0;right=0;pointerEvents=1;fontSize=11;fontColor=#B3B3B3;" parent="f48sKgCeAc52ZoEBVjOV-227" vertex="1">
          <mxGeometry x="360" width="40" height="20" as="geometry">
            <mxRectangle width="40" height="20" as="alternateBounds" />
          </mxGeometry>
        </mxCell>
        <mxCell id="f48sKgCeAc52ZoEBVjOV-238" value="10" style="shape=partialRectangle;html=1;whiteSpace=wrap;connectable=0;strokeColor=inherit;overflow=hidden;fillColor=none;top=0;left=0;bottom=0;right=0;pointerEvents=1;fontSize=11;fontColor=#B3B3B3;" parent="f48sKgCeAc52ZoEBVjOV-227" vertex="1">
          <mxGeometry x="400" width="40" height="20" as="geometry">
            <mxRectangle width="40" height="20" as="alternateBounds" />
          </mxGeometry>
        </mxCell>
        <mxCell id="f48sKgCeAc52ZoEBVjOV-239" value="11" style="shape=partialRectangle;html=1;whiteSpace=wrap;connectable=0;strokeColor=inherit;overflow=hidden;fillColor=none;top=0;left=0;bottom=0;right=0;pointerEvents=1;fontSize=11;fontColor=#B3B3B3;" parent="f48sKgCeAc52ZoEBVjOV-227" vertex="1">
          <mxGeometry x="440" width="40" height="20" as="geometry">
            <mxRectangle width="40" height="20" as="alternateBounds" />
          </mxGeometry>
        </mxCell>
        <mxCell id="f48sKgCeAc52ZoEBVjOV-240" value="12" style="shape=partialRectangle;html=1;whiteSpace=wrap;connectable=0;strokeColor=inherit;overflow=hidden;fillColor=none;top=0;left=0;bottom=0;right=0;pointerEvents=1;fontSize=11;fontColor=#B3B3B3;" parent="f48sKgCeAc52ZoEBVjOV-227" vertex="1">
          <mxGeometry x="480" width="40" height="20" as="geometry">
            <mxRectangle width="40" height="20" as="alternateBounds" />
          </mxGeometry>
        </mxCell>
        <mxCell id="f48sKgCeAc52ZoEBVjOV-241" value="" style="shape=tableRow;horizontal=0;startSize=0;swimlaneHead=0;swimlaneBody=0;strokeColor=inherit;top=0;left=0;bottom=0;right=0;collapsible=0;dropTarget=0;fillColor=none;points=[[0,0.5],[1,0.5]];portConstraint=eastwest;fontSize=12;" parent="f48sKgCeAc52ZoEBVjOV-226" vertex="1">
          <mxGeometry y="20" width="520.0000000000005" height="40" as="geometry" />
        </mxCell>
        <mxCell id="f48sKgCeAc52ZoEBVjOV-242" value="0" style="shape=partialRectangle;html=1;whiteSpace=wrap;connectable=0;strokeColor=inherit;overflow=hidden;fillColor=none;top=0;left=0;bottom=0;right=0;pointerEvents=1;fontSize=12;" parent="f48sKgCeAc52ZoEBVjOV-241" vertex="1">
          <mxGeometry width="40" height="40" as="geometry">
            <mxRectangle width="40" height="40" as="alternateBounds" />
          </mxGeometry>
        </mxCell>
        <mxCell id="f48sKgCeAc52ZoEBVjOV-243" value="1" style="shape=partialRectangle;html=1;whiteSpace=wrap;connectable=0;strokeColor=inherit;overflow=hidden;fillColor=none;top=0;left=0;bottom=0;right=0;pointerEvents=1;fontSize=12;" parent="f48sKgCeAc52ZoEBVjOV-241" vertex="1">
          <mxGeometry x="40" width="40" height="40" as="geometry">
            <mxRectangle width="40" height="40" as="alternateBounds" />
          </mxGeometry>
        </mxCell>
        <mxCell id="f48sKgCeAc52ZoEBVjOV-244" value="2" style="shape=partialRectangle;html=1;whiteSpace=wrap;connectable=0;strokeColor=inherit;overflow=hidden;fillColor=none;top=0;left=0;bottom=0;right=0;pointerEvents=1;fontSize=12;" parent="f48sKgCeAc52ZoEBVjOV-241" vertex="1">
          <mxGeometry x="80" width="40" height="40" as="geometry">
            <mxRectangle width="40" height="40" as="alternateBounds" />
          </mxGeometry>
        </mxCell>
        <mxCell id="f48sKgCeAc52ZoEBVjOV-245" value="7" style="shape=partialRectangle;html=1;whiteSpace=wrap;connectable=0;strokeColor=inherit;overflow=hidden;fillColor=none;top=0;left=0;bottom=0;right=0;pointerEvents=1;fontSize=12;" parent="f48sKgCeAc52ZoEBVjOV-241" vertex="1">
          <mxGeometry x="120" width="40" height="40" as="geometry">
            <mxRectangle width="40" height="40" as="alternateBounds" />
          </mxGeometry>
        </mxCell>
        <mxCell id="f48sKgCeAc52ZoEBVjOV-246" value="3" style="shape=partialRectangle;html=1;whiteSpace=wrap;connectable=0;strokeColor=inherit;overflow=hidden;fillColor=none;top=0;left=0;bottom=0;right=0;pointerEvents=1;fontSize=12;" parent="f48sKgCeAc52ZoEBVjOV-241" vertex="1">
          <mxGeometry x="160" width="40" height="40" as="geometry">
            <mxRectangle width="40" height="40" as="alternateBounds" />
          </mxGeometry>
        </mxCell>
        <mxCell id="f48sKgCeAc52ZoEBVjOV-247" value="10" style="shape=partialRectangle;html=1;whiteSpace=wrap;connectable=0;strokeColor=inherit;overflow=hidden;fillColor=none;top=0;left=0;bottom=0;right=0;pointerEvents=1;fontSize=12;" parent="f48sKgCeAc52ZoEBVjOV-241" vertex="1">
          <mxGeometry x="200" width="40" height="40" as="geometry">
            <mxRectangle width="40" height="40" as="alternateBounds" />
          </mxGeometry>
        </mxCell>
        <mxCell id="f48sKgCeAc52ZoEBVjOV-248" value="4" style="shape=partialRectangle;html=1;whiteSpace=wrap;connectable=0;strokeColor=inherit;overflow=hidden;fillColor=none;top=0;left=0;bottom=0;right=0;pointerEvents=1;fontSize=12;" parent="f48sKgCeAc52ZoEBVjOV-241" vertex="1">
          <mxGeometry x="240" width="40" height="40" as="geometry">
            <mxRectangle width="40" height="40" as="alternateBounds" />
          </mxGeometry>
        </mxCell>
        <mxCell id="f48sKgCeAc52ZoEBVjOV-249" value="8" style="shape=partialRectangle;html=1;whiteSpace=wrap;connectable=0;strokeColor=inherit;overflow=hidden;fillColor=none;top=0;left=0;bottom=0;right=0;pointerEvents=1;fontSize=12;" parent="f48sKgCeAc52ZoEBVjOV-241" vertex="1">
          <mxGeometry x="280" width="40" height="40" as="geometry">
            <mxRectangle width="40" height="40" as="alternateBounds" />
          </mxGeometry>
        </mxCell>
        <mxCell id="f48sKgCeAc52ZoEBVjOV-250" value="5" style="shape=partialRectangle;html=1;whiteSpace=wrap;connectable=0;strokeColor=inherit;overflow=hidden;fillColor=none;top=0;left=0;bottom=0;right=0;pointerEvents=1;fontSize=12;" parent="f48sKgCeAc52ZoEBVjOV-241" vertex="1">
          <mxGeometry x="320" width="40" height="40" as="geometry">
            <mxRectangle width="40" height="40" as="alternateBounds" />
          </mxGeometry>
        </mxCell>
        <mxCell id="f48sKgCeAc52ZoEBVjOV-251" value="6" style="shape=partialRectangle;html=1;whiteSpace=wrap;connectable=0;strokeColor=inherit;overflow=hidden;fillColor=none;top=0;left=0;bottom=0;right=0;pointerEvents=1;fontSize=12;" parent="f48sKgCeAc52ZoEBVjOV-241" vertex="1">
          <mxGeometry x="360" width="40" height="40" as="geometry">
            <mxRectangle width="40" height="40" as="alternateBounds" />
          </mxGeometry>
        </mxCell>
        <mxCell id="f48sKgCeAc52ZoEBVjOV-252" value="9" style="shape=partialRectangle;html=1;whiteSpace=wrap;connectable=0;strokeColor=inherit;overflow=hidden;fillColor=none;top=0;left=0;bottom=0;right=0;pointerEvents=1;fontSize=12;" parent="f48sKgCeAc52ZoEBVjOV-241" vertex="1">
          <mxGeometry x="400" width="40" height="40" as="geometry">
            <mxRectangle width="40" height="40" as="alternateBounds" />
          </mxGeometry>
        </mxCell>
        <mxCell id="f48sKgCeAc52ZoEBVjOV-253" value="11" style="shape=partialRectangle;html=1;whiteSpace=wrap;connectable=0;strokeColor=inherit;overflow=hidden;fillColor=none;top=0;left=0;bottom=0;right=0;pointerEvents=1;fontSize=12;" parent="f48sKgCeAc52ZoEBVjOV-241" vertex="1">
          <mxGeometry x="440" width="40" height="40" as="geometry">
            <mxRectangle width="40" height="40" as="alternateBounds" />
          </mxGeometry>
        </mxCell>
        <mxCell id="f48sKgCeAc52ZoEBVjOV-254" value="12" style="shape=partialRectangle;html=1;whiteSpace=wrap;connectable=0;strokeColor=inherit;overflow=hidden;fillColor=none;top=0;left=0;bottom=0;right=0;pointerEvents=1;fontSize=12;" parent="f48sKgCeAc52ZoEBVjOV-241" vertex="1">
          <mxGeometry x="480" width="40" height="40" as="geometry">
            <mxRectangle width="40" height="40" as="alternateBounds" />
          </mxGeometry>
        </mxCell>
        <mxCell id="f48sKgCeAc52ZoEBVjOV-255" style="shape=tableRow;horizontal=0;startSize=0;swimlaneHead=0;swimlaneBody=0;strokeColor=inherit;top=0;left=0;bottom=0;right=0;collapsible=0;dropTarget=0;fillColor=none;points=[[0,0.5],[1,0.5]];portConstraint=eastwest;fontSize=11;fontColor=#1303FF;" parent="f48sKgCeAc52ZoEBVjOV-226" vertex="1">
          <mxGeometry y="60" width="520.0000000000005" height="20" as="geometry" />
        </mxCell>
        <mxCell id="f48sKgCeAc52ZoEBVjOV-256" value="0" style="shape=partialRectangle;html=1;whiteSpace=wrap;connectable=0;strokeColor=inherit;overflow=hidden;fillColor=none;top=0;left=0;bottom=0;right=0;pointerEvents=1;fontSize=11;fontColor=#1303FF;" parent="f48sKgCeAc52ZoEBVjOV-255" vertex="1">
          <mxGeometry width="40" height="20" as="geometry">
            <mxRectangle width="40" height="20" as="alternateBounds" />
          </mxGeometry>
        </mxCell>
        <mxCell id="f48sKgCeAc52ZoEBVjOV-257" value="1" style="shape=partialRectangle;html=1;whiteSpace=wrap;connectable=0;strokeColor=inherit;overflow=hidden;fillColor=none;top=0;left=0;bottom=0;right=0;pointerEvents=1;fontSize=11;fontColor=#1303FF;" parent="f48sKgCeAc52ZoEBVjOV-255" vertex="1">
          <mxGeometry x="40" width="40" height="20" as="geometry">
            <mxRectangle width="40" height="20" as="alternateBounds" />
          </mxGeometry>
        </mxCell>
        <mxCell id="f48sKgCeAc52ZoEBVjOV-258" value="0" style="shape=partialRectangle;html=1;whiteSpace=wrap;connectable=0;strokeColor=inherit;overflow=hidden;fillColor=none;top=0;left=0;bottom=0;right=0;pointerEvents=1;fontSize=11;fontColor=#1303FF;" parent="f48sKgCeAc52ZoEBVjOV-255" vertex="1">
          <mxGeometry x="80" width="40" height="20" as="geometry">
            <mxRectangle width="40" height="20" as="alternateBounds" />
          </mxGeometry>
        </mxCell>
        <mxCell id="f48sKgCeAc52ZoEBVjOV-259" value="1" style="shape=partialRectangle;html=1;whiteSpace=wrap;connectable=0;strokeColor=inherit;overflow=hidden;fillColor=none;top=0;left=0;bottom=0;right=0;pointerEvents=1;fontSize=11;fontColor=#1303FF;" parent="f48sKgCeAc52ZoEBVjOV-255" vertex="1">
          <mxGeometry x="120" width="40" height="20" as="geometry">
            <mxRectangle width="40" height="20" as="alternateBounds" />
          </mxGeometry>
        </mxCell>
        <mxCell id="f48sKgCeAc52ZoEBVjOV-260" value="2" style="shape=partialRectangle;html=1;whiteSpace=wrap;connectable=0;strokeColor=inherit;overflow=hidden;fillColor=none;top=0;left=0;bottom=0;right=0;pointerEvents=1;fontSize=11;fontColor=#1303FF;" parent="f48sKgCeAc52ZoEBVjOV-255" vertex="1">
          <mxGeometry x="160" width="40" height="20" as="geometry">
            <mxRectangle width="40" height="20" as="alternateBounds" />
          </mxGeometry>
        </mxCell>
        <mxCell id="f48sKgCeAc52ZoEBVjOV-261" value="2" style="shape=partialRectangle;html=1;whiteSpace=wrap;connectable=0;strokeColor=inherit;overflow=hidden;fillColor=none;top=0;left=0;bottom=0;right=0;pointerEvents=1;fontSize=11;fontColor=#1303FF;" parent="f48sKgCeAc52ZoEBVjOV-255" vertex="1">
          <mxGeometry x="200" width="40" height="20" as="geometry">
            <mxRectangle width="40" height="20" as="alternateBounds" />
          </mxGeometry>
        </mxCell>
        <mxCell id="f48sKgCeAc52ZoEBVjOV-262" value="3" style="shape=partialRectangle;html=1;whiteSpace=wrap;connectable=0;strokeColor=inherit;overflow=hidden;fillColor=none;top=0;left=0;bottom=0;right=0;pointerEvents=1;fontSize=11;fontColor=#1303FF;" parent="f48sKgCeAc52ZoEBVjOV-255" vertex="1">
          <mxGeometry x="240" width="40" height="20" as="geometry">
            <mxRectangle width="40" height="20" as="alternateBounds" />
          </mxGeometry>
        </mxCell>
        <mxCell id="f48sKgCeAc52ZoEBVjOV-263" value="3" style="shape=partialRectangle;html=1;whiteSpace=wrap;connectable=0;strokeColor=inherit;overflow=hidden;fillColor=none;top=0;left=0;bottom=0;right=0;pointerEvents=1;fontSize=11;fontColor=#1303FF;" parent="f48sKgCeAc52ZoEBVjOV-255" vertex="1">
          <mxGeometry x="280" width="40" height="20" as="geometry">
            <mxRectangle width="40" height="20" as="alternateBounds" />
          </mxGeometry>
        </mxCell>
        <mxCell id="f48sKgCeAc52ZoEBVjOV-264" value="4" style="shape=partialRectangle;html=1;whiteSpace=wrap;connectable=0;strokeColor=inherit;overflow=hidden;fillColor=none;top=0;left=0;bottom=0;right=0;pointerEvents=1;fontSize=11;fontColor=#1303FF;" parent="f48sKgCeAc52ZoEBVjOV-255" vertex="1">
          <mxGeometry x="320" width="40" height="20" as="geometry">
            <mxRectangle width="40" height="20" as="alternateBounds" />
          </mxGeometry>
        </mxCell>
        <mxCell id="f48sKgCeAc52ZoEBVjOV-265" value="4" style="shape=partialRectangle;html=1;whiteSpace=wrap;connectable=0;strokeColor=inherit;overflow=hidden;fillColor=none;top=0;left=0;bottom=0;right=0;pointerEvents=1;fontSize=11;fontColor=#1303FF;" parent="f48sKgCeAc52ZoEBVjOV-255" vertex="1">
          <mxGeometry x="360" width="40" height="20" as="geometry">
            <mxRectangle width="40" height="20" as="alternateBounds" />
          </mxGeometry>
        </mxCell>
        <mxCell id="f48sKgCeAc52ZoEBVjOV-266" value="4" style="shape=partialRectangle;html=1;whiteSpace=wrap;connectable=0;strokeColor=inherit;overflow=hidden;fillColor=none;top=0;left=0;bottom=0;right=0;pointerEvents=1;fontSize=11;fontColor=#1303FF;" parent="f48sKgCeAc52ZoEBVjOV-255" vertex="1">
          <mxGeometry x="400" width="40" height="20" as="geometry">
            <mxRectangle width="40" height="20" as="alternateBounds" />
          </mxGeometry>
        </mxCell>
        <mxCell id="f48sKgCeAc52ZoEBVjOV-267" value="0" style="shape=partialRectangle;html=1;whiteSpace=wrap;connectable=0;strokeColor=inherit;overflow=hidden;fillColor=none;top=0;left=0;bottom=0;right=0;pointerEvents=1;fontSize=11;fontColor=#1303FF;" parent="f48sKgCeAc52ZoEBVjOV-255" vertex="1">
          <mxGeometry x="440" width="40" height="20" as="geometry">
            <mxRectangle width="40" height="20" as="alternateBounds" />
          </mxGeometry>
        </mxCell>
        <mxCell id="f48sKgCeAc52ZoEBVjOV-268" value="1" style="shape=partialRectangle;html=1;whiteSpace=wrap;connectable=0;strokeColor=inherit;overflow=hidden;fillColor=none;top=0;left=0;bottom=0;right=0;pointerEvents=1;fontSize=11;fontColor=#1303FF;" parent="f48sKgCeAc52ZoEBVjOV-255" vertex="1">
          <mxGeometry x="480" width="40" height="20" as="geometry">
            <mxRectangle width="40" height="20" as="alternateBounds" />
          </mxGeometry>
        </mxCell>
        <mxCell id="f48sKgCeAc52ZoEBVjOV-269" style="edgeStyle=orthogonalEdgeStyle;rounded=0;orthogonalLoop=1;jettySize=auto;html=1;exitX=0.5;exitY=1;exitDx=0;exitDy=0;entryX=0.5;entryY=0;entryDx=0;entryDy=0;" parent="1" source="f48sKgCeAc52ZoEBVjOV-270" target="f48sKgCeAc52ZoEBVjOV-272" edge="1">
          <mxGeometry relative="1" as="geometry" />
        </mxCell>
        <mxCell id="f48sKgCeAc52ZoEBVjOV-270" value="11" style="rounded=0;whiteSpace=wrap;html=1;" parent="1" vertex="1">
          <mxGeometry x="40" y="480" width="40" height="40" as="geometry" />
        </mxCell>
        <mxCell id="f48sKgCeAc52ZoEBVjOV-271" value="&lt;p style=&quot;line-height: 100%; font-size: 11px;&quot;&gt;d=0&lt;/p&gt;" style="text;html=1;align=center;verticalAlign=middle;whiteSpace=wrap;rounded=0;fontFamily=Verdana;fontSize=11;labelBackgroundColor=none;glass=0;fontStyle=0;fontColor=#1303FF;" parent="1" vertex="1">
          <mxGeometry x="80" y="480" width="30" height="25" as="geometry" />
        </mxCell>
        <mxCell id="f48sKgCeAc52ZoEBVjOV-272" value="12" style="rounded=0;whiteSpace=wrap;html=1;" parent="1" vertex="1">
          <mxGeometry x="40" y="560" width="40" height="40" as="geometry" />
        </mxCell>
        <mxCell id="f48sKgCeAc52ZoEBVjOV-273" value="&lt;p style=&quot;line-height: 100%; font-size: 11px;&quot;&gt;d=1&lt;/p&gt;" style="text;html=1;align=center;verticalAlign=middle;whiteSpace=wrap;rounded=0;fontFamily=Verdana;fontSize=11;labelBackgroundColor=none;glass=0;fontStyle=0;fontColor=#1303FF;" parent="1" vertex="1">
          <mxGeometry x="80" y="560" width="30" height="25" as="geometry" />
        </mxCell>
        <mxCell id="f48sKgCeAc52ZoEBVjOV-274" value="" style="shape=table;startSize=0;container=1;collapsible=0;childLayout=tableLayout;fontSize=16;" parent="1" vertex="1">
          <mxGeometry x="440" y="760" width="520.0000000000005" height="80" as="geometry" />
        </mxCell>
        <mxCell id="f48sKgCeAc52ZoEBVjOV-275" value="" style="shape=tableRow;horizontal=0;startSize=0;swimlaneHead=0;swimlaneBody=0;strokeColor=inherit;top=0;left=0;bottom=0;right=0;collapsible=0;dropTarget=0;fillColor=none;points=[[0,0.5],[1,0.5]];portConstraint=eastwest;fontSize=11;fontColor=#B3B3B3;" parent="f48sKgCeAc52ZoEBVjOV-274" vertex="1">
          <mxGeometry width="520.0000000000005" height="20" as="geometry" />
        </mxCell>
        <mxCell id="f48sKgCeAc52ZoEBVjOV-276" value="0&lt;span style=&quot;white-space: pre; font-size: 11px;&quot;&gt;&#x9;&lt;/span&gt;" style="shape=partialRectangle;html=1;whiteSpace=wrap;connectable=0;strokeColor=inherit;overflow=hidden;fillColor=none;top=0;left=0;bottom=0;right=0;pointerEvents=1;fontSize=11;fontColor=#B3B3B3;" parent="f48sKgCeAc52ZoEBVjOV-275" vertex="1">
          <mxGeometry width="40" height="20" as="geometry">
            <mxRectangle width="40" height="20" as="alternateBounds" />
          </mxGeometry>
        </mxCell>
        <mxCell id="f48sKgCeAc52ZoEBVjOV-277" value="1" style="shape=partialRectangle;html=1;whiteSpace=wrap;connectable=0;strokeColor=inherit;overflow=hidden;fillColor=none;top=0;left=0;bottom=0;right=0;pointerEvents=1;fontSize=11;fontColor=#B3B3B3;" parent="f48sKgCeAc52ZoEBVjOV-275" vertex="1">
          <mxGeometry x="40" width="40" height="20" as="geometry">
            <mxRectangle width="40" height="20" as="alternateBounds" />
          </mxGeometry>
        </mxCell>
        <mxCell id="f48sKgCeAc52ZoEBVjOV-278" value="2" style="shape=partialRectangle;html=1;whiteSpace=wrap;connectable=0;strokeColor=inherit;overflow=hidden;fillColor=none;top=0;left=0;bottom=0;right=0;pointerEvents=1;fontSize=11;fontColor=#B3B3B3;" parent="f48sKgCeAc52ZoEBVjOV-275" vertex="1">
          <mxGeometry x="80" width="40" height="20" as="geometry">
            <mxRectangle width="40" height="20" as="alternateBounds" />
          </mxGeometry>
        </mxCell>
        <mxCell id="f48sKgCeAc52ZoEBVjOV-279" value="3" style="shape=partialRectangle;html=1;whiteSpace=wrap;connectable=0;strokeColor=inherit;overflow=hidden;fillColor=none;top=0;left=0;bottom=0;right=0;pointerEvents=1;fontSize=11;fontColor=#B3B3B3;" parent="f48sKgCeAc52ZoEBVjOV-275" vertex="1">
          <mxGeometry x="120" width="40" height="20" as="geometry">
            <mxRectangle width="40" height="20" as="alternateBounds" />
          </mxGeometry>
        </mxCell>
        <mxCell id="f48sKgCeAc52ZoEBVjOV-280" value="4" style="shape=partialRectangle;html=1;whiteSpace=wrap;connectable=0;strokeColor=inherit;overflow=hidden;fillColor=none;top=0;left=0;bottom=0;right=0;pointerEvents=1;fontSize=11;fontColor=#B3B3B3;" parent="f48sKgCeAc52ZoEBVjOV-275" vertex="1">
          <mxGeometry x="160" width="40" height="20" as="geometry">
            <mxRectangle width="40" height="20" as="alternateBounds" />
          </mxGeometry>
        </mxCell>
        <mxCell id="f48sKgCeAc52ZoEBVjOV-281" value="5" style="shape=partialRectangle;html=1;whiteSpace=wrap;connectable=0;strokeColor=inherit;overflow=hidden;fillColor=none;top=0;left=0;bottom=0;right=0;pointerEvents=1;fontSize=11;fontColor=#B3B3B3;" parent="f48sKgCeAc52ZoEBVjOV-275" vertex="1">
          <mxGeometry x="200" width="40" height="20" as="geometry">
            <mxRectangle width="40" height="20" as="alternateBounds" />
          </mxGeometry>
        </mxCell>
        <mxCell id="f48sKgCeAc52ZoEBVjOV-282" value="6" style="shape=partialRectangle;html=1;whiteSpace=wrap;connectable=0;strokeColor=inherit;overflow=hidden;fillColor=none;top=0;left=0;bottom=0;right=0;pointerEvents=1;fontSize=11;fontColor=#B3B3B3;" parent="f48sKgCeAc52ZoEBVjOV-275" vertex="1">
          <mxGeometry x="240" width="40" height="20" as="geometry">
            <mxRectangle width="40" height="20" as="alternateBounds" />
          </mxGeometry>
        </mxCell>
        <mxCell id="f48sKgCeAc52ZoEBVjOV-283" value="7" style="shape=partialRectangle;html=1;whiteSpace=wrap;connectable=0;strokeColor=inherit;overflow=hidden;fillColor=none;top=0;left=0;bottom=0;right=0;pointerEvents=1;fontSize=11;fontColor=#B3B3B3;" parent="f48sKgCeAc52ZoEBVjOV-275" vertex="1">
          <mxGeometry x="280" width="40" height="20" as="geometry">
            <mxRectangle width="40" height="20" as="alternateBounds" />
          </mxGeometry>
        </mxCell>
        <mxCell id="f48sKgCeAc52ZoEBVjOV-284" value="8" style="shape=partialRectangle;html=1;whiteSpace=wrap;connectable=0;strokeColor=inherit;overflow=hidden;fillColor=none;top=0;left=0;bottom=0;right=0;pointerEvents=1;fontSize=11;fontColor=#B3B3B3;" parent="f48sKgCeAc52ZoEBVjOV-275" vertex="1">
          <mxGeometry x="320" width="40" height="20" as="geometry">
            <mxRectangle width="40" height="20" as="alternateBounds" />
          </mxGeometry>
        </mxCell>
        <mxCell id="f48sKgCeAc52ZoEBVjOV-285" value="9" style="shape=partialRectangle;html=1;whiteSpace=wrap;connectable=0;strokeColor=inherit;overflow=hidden;fillColor=none;top=0;left=0;bottom=0;right=0;pointerEvents=1;fontSize=11;fontColor=#B3B3B3;" parent="f48sKgCeAc52ZoEBVjOV-275" vertex="1">
          <mxGeometry x="360" width="40" height="20" as="geometry">
            <mxRectangle width="40" height="20" as="alternateBounds" />
          </mxGeometry>
        </mxCell>
        <mxCell id="f48sKgCeAc52ZoEBVjOV-286" value="10" style="shape=partialRectangle;html=1;whiteSpace=wrap;connectable=0;strokeColor=inherit;overflow=hidden;fillColor=none;top=0;left=0;bottom=0;right=0;pointerEvents=1;fontSize=11;fontColor=#B3B3B3;" parent="f48sKgCeAc52ZoEBVjOV-275" vertex="1">
          <mxGeometry x="400" width="40" height="20" as="geometry">
            <mxRectangle width="40" height="20" as="alternateBounds" />
          </mxGeometry>
        </mxCell>
        <mxCell id="f48sKgCeAc52ZoEBVjOV-287" value="11" style="shape=partialRectangle;html=1;whiteSpace=wrap;connectable=0;strokeColor=inherit;overflow=hidden;fillColor=none;top=0;left=0;bottom=0;right=0;pointerEvents=1;fontSize=11;fontColor=#B3B3B3;" parent="f48sKgCeAc52ZoEBVjOV-275" vertex="1">
          <mxGeometry x="440" width="40" height="20" as="geometry">
            <mxRectangle width="40" height="20" as="alternateBounds" />
          </mxGeometry>
        </mxCell>
        <mxCell id="f48sKgCeAc52ZoEBVjOV-288" value="12" style="shape=partialRectangle;html=1;whiteSpace=wrap;connectable=0;strokeColor=inherit;overflow=hidden;fillColor=none;top=0;left=0;bottom=0;right=0;pointerEvents=1;fontSize=11;fontColor=#B3B3B3;" parent="f48sKgCeAc52ZoEBVjOV-275" vertex="1">
          <mxGeometry x="480" width="40" height="20" as="geometry">
            <mxRectangle width="40" height="20" as="alternateBounds" />
          </mxGeometry>
        </mxCell>
        <mxCell id="f48sKgCeAc52ZoEBVjOV-289" value="" style="shape=tableRow;horizontal=0;startSize=0;swimlaneHead=0;swimlaneBody=0;strokeColor=inherit;top=0;left=0;bottom=0;right=0;collapsible=0;dropTarget=0;fillColor=none;points=[[0,0.5],[1,0.5]];portConstraint=eastwest;fontSize=12;" parent="f48sKgCeAc52ZoEBVjOV-274" vertex="1">
          <mxGeometry y="20" width="520.0000000000005" height="40" as="geometry" />
        </mxCell>
        <mxCell id="f48sKgCeAc52ZoEBVjOV-290" value="0" style="shape=partialRectangle;html=1;whiteSpace=wrap;connectable=0;strokeColor=inherit;overflow=hidden;fillColor=none;top=0;left=0;bottom=0;right=0;pointerEvents=1;fontSize=12;" parent="f48sKgCeAc52ZoEBVjOV-289" vertex="1">
          <mxGeometry width="40" height="40" as="geometry">
            <mxRectangle width="40" height="40" as="alternateBounds" />
          </mxGeometry>
        </mxCell>
        <mxCell id="f48sKgCeAc52ZoEBVjOV-291" value="2" style="shape=partialRectangle;html=1;whiteSpace=wrap;connectable=0;strokeColor=inherit;overflow=hidden;fillColor=none;top=0;left=0;bottom=0;right=0;pointerEvents=1;fontSize=12;" parent="f48sKgCeAc52ZoEBVjOV-289" vertex="1">
          <mxGeometry x="40" width="40" height="40" as="geometry">
            <mxRectangle width="40" height="40" as="alternateBounds" />
          </mxGeometry>
        </mxCell>
        <mxCell id="f48sKgCeAc52ZoEBVjOV-292" value="11" style="shape=partialRectangle;html=1;whiteSpace=wrap;connectable=0;strokeColor=inherit;overflow=hidden;fillColor=none;top=0;left=0;bottom=0;right=0;pointerEvents=1;fontSize=12;" parent="f48sKgCeAc52ZoEBVjOV-289" vertex="1">
          <mxGeometry x="80" width="40" height="40" as="geometry">
            <mxRectangle width="40" height="40" as="alternateBounds" />
          </mxGeometry>
        </mxCell>
        <mxCell id="f48sKgCeAc52ZoEBVjOV-293" value="1" style="shape=partialRectangle;html=1;whiteSpace=wrap;connectable=0;strokeColor=inherit;overflow=hidden;fillColor=none;top=0;left=0;bottom=0;right=0;pointerEvents=1;fontSize=12;" parent="f48sKgCeAc52ZoEBVjOV-289" vertex="1">
          <mxGeometry x="120" width="40" height="40" as="geometry">
            <mxRectangle width="40" height="40" as="alternateBounds" />
          </mxGeometry>
        </mxCell>
        <mxCell id="f48sKgCeAc52ZoEBVjOV-294" value="7" style="shape=partialRectangle;html=1;whiteSpace=wrap;connectable=0;strokeColor=inherit;overflow=hidden;fillColor=none;top=0;left=0;bottom=0;right=0;pointerEvents=1;fontSize=12;" parent="f48sKgCeAc52ZoEBVjOV-289" vertex="1">
          <mxGeometry x="160" width="40" height="40" as="geometry">
            <mxRectangle width="40" height="40" as="alternateBounds" />
          </mxGeometry>
        </mxCell>
        <mxCell id="f48sKgCeAc52ZoEBVjOV-295" value="12" style="shape=partialRectangle;html=1;whiteSpace=wrap;connectable=0;strokeColor=inherit;overflow=hidden;fillColor=none;top=0;left=0;bottom=0;right=0;pointerEvents=1;fontSize=12;" parent="f48sKgCeAc52ZoEBVjOV-289" vertex="1">
          <mxGeometry x="200" width="40" height="40" as="geometry">
            <mxRectangle width="40" height="40" as="alternateBounds" />
          </mxGeometry>
        </mxCell>
        <mxCell id="f48sKgCeAc52ZoEBVjOV-296" value="3" style="shape=partialRectangle;html=1;whiteSpace=wrap;connectable=0;strokeColor=inherit;overflow=hidden;fillColor=none;top=0;left=0;bottom=0;right=0;pointerEvents=1;fontSize=12;" parent="f48sKgCeAc52ZoEBVjOV-289" vertex="1">
          <mxGeometry x="240" width="40" height="40" as="geometry">
            <mxRectangle width="40" height="40" as="alternateBounds" />
          </mxGeometry>
        </mxCell>
        <mxCell id="f48sKgCeAc52ZoEBVjOV-297" value="10" style="shape=partialRectangle;html=1;whiteSpace=wrap;connectable=0;strokeColor=inherit;overflow=hidden;fillColor=none;top=0;left=0;bottom=0;right=0;pointerEvents=1;fontSize=12;" parent="f48sKgCeAc52ZoEBVjOV-289" vertex="1">
          <mxGeometry x="280" width="40" height="40" as="geometry">
            <mxRectangle width="40" height="40" as="alternateBounds" />
          </mxGeometry>
        </mxCell>
        <mxCell id="f48sKgCeAc52ZoEBVjOV-298" value="4" style="shape=partialRectangle;html=1;whiteSpace=wrap;connectable=0;strokeColor=inherit;overflow=hidden;fillColor=none;top=0;left=0;bottom=0;right=0;pointerEvents=1;fontSize=12;" parent="f48sKgCeAc52ZoEBVjOV-289" vertex="1">
          <mxGeometry x="320" width="40" height="40" as="geometry">
            <mxRectangle width="40" height="40" as="alternateBounds" />
          </mxGeometry>
        </mxCell>
        <mxCell id="f48sKgCeAc52ZoEBVjOV-299" value="8" style="shape=partialRectangle;html=1;whiteSpace=wrap;connectable=0;strokeColor=inherit;overflow=hidden;fillColor=none;top=0;left=0;bottom=0;right=0;pointerEvents=1;fontSize=12;" parent="f48sKgCeAc52ZoEBVjOV-289" vertex="1">
          <mxGeometry x="360" width="40" height="40" as="geometry">
            <mxRectangle width="40" height="40" as="alternateBounds" />
          </mxGeometry>
        </mxCell>
        <mxCell id="f48sKgCeAc52ZoEBVjOV-300" value="5" style="shape=partialRectangle;html=1;whiteSpace=wrap;connectable=0;strokeColor=inherit;overflow=hidden;fillColor=none;top=0;left=0;bottom=0;right=0;pointerEvents=1;fontSize=12;" parent="f48sKgCeAc52ZoEBVjOV-289" vertex="1">
          <mxGeometry x="400" width="40" height="40" as="geometry">
            <mxRectangle width="40" height="40" as="alternateBounds" />
          </mxGeometry>
        </mxCell>
        <mxCell id="f48sKgCeAc52ZoEBVjOV-301" value="6" style="shape=partialRectangle;html=1;whiteSpace=wrap;connectable=0;strokeColor=inherit;overflow=hidden;fillColor=none;top=0;left=0;bottom=0;right=0;pointerEvents=1;fontSize=12;" parent="f48sKgCeAc52ZoEBVjOV-289" vertex="1">
          <mxGeometry x="440" width="40" height="40" as="geometry">
            <mxRectangle width="40" height="40" as="alternateBounds" />
          </mxGeometry>
        </mxCell>
        <mxCell id="f48sKgCeAc52ZoEBVjOV-302" value="9" style="shape=partialRectangle;html=1;whiteSpace=wrap;connectable=0;strokeColor=inherit;overflow=hidden;fillColor=none;top=0;left=0;bottom=0;right=0;pointerEvents=1;fontSize=12;" parent="f48sKgCeAc52ZoEBVjOV-289" vertex="1">
          <mxGeometry x="480" width="40" height="40" as="geometry">
            <mxRectangle width="40" height="40" as="alternateBounds" />
          </mxGeometry>
        </mxCell>
        <mxCell id="f48sKgCeAc52ZoEBVjOV-303" style="shape=tableRow;horizontal=0;startSize=0;swimlaneHead=0;swimlaneBody=0;strokeColor=inherit;top=0;left=0;bottom=0;right=0;collapsible=0;dropTarget=0;fillColor=none;points=[[0,0.5],[1,0.5]];portConstraint=eastwest;fontSize=11;fontColor=#1303FF;" parent="f48sKgCeAc52ZoEBVjOV-274" vertex="1">
          <mxGeometry y="60" width="520.0000000000005" height="20" as="geometry" />
        </mxCell>
        <mxCell id="f48sKgCeAc52ZoEBVjOV-304" value="0" style="shape=partialRectangle;html=1;whiteSpace=wrap;connectable=0;strokeColor=inherit;overflow=hidden;fillColor=none;top=0;left=0;bottom=0;right=0;pointerEvents=1;fontSize=11;fontColor=#1303FF;" parent="f48sKgCeAc52ZoEBVjOV-303" vertex="1">
          <mxGeometry width="40" height="20" as="geometry">
            <mxRectangle width="40" height="20" as="alternateBounds" />
          </mxGeometry>
        </mxCell>
        <mxCell id="f48sKgCeAc52ZoEBVjOV-305" value="0" style="shape=partialRectangle;html=1;whiteSpace=wrap;connectable=0;strokeColor=inherit;overflow=hidden;fillColor=none;top=0;left=0;bottom=0;right=0;pointerEvents=1;fontSize=11;fontColor=#1303FF;" parent="f48sKgCeAc52ZoEBVjOV-303" vertex="1">
          <mxGeometry x="40" width="40" height="20" as="geometry">
            <mxRectangle width="40" height="20" as="alternateBounds" />
          </mxGeometry>
        </mxCell>
        <mxCell id="f48sKgCeAc52ZoEBVjOV-306" value="0" style="shape=partialRectangle;html=1;whiteSpace=wrap;connectable=0;strokeColor=inherit;overflow=hidden;fillColor=none;top=0;left=0;bottom=0;right=0;pointerEvents=1;fontSize=11;fontColor=#1303FF;" parent="f48sKgCeAc52ZoEBVjOV-303" vertex="1">
          <mxGeometry x="80" width="40" height="20" as="geometry">
            <mxRectangle width="40" height="20" as="alternateBounds" />
          </mxGeometry>
        </mxCell>
        <mxCell id="f48sKgCeAc52ZoEBVjOV-307" value="1" style="shape=partialRectangle;html=1;whiteSpace=wrap;connectable=0;strokeColor=inherit;overflow=hidden;fillColor=none;top=0;left=0;bottom=0;right=0;pointerEvents=1;fontSize=11;fontColor=#1303FF;" parent="f48sKgCeAc52ZoEBVjOV-303" vertex="1">
          <mxGeometry x="120" width="40" height="20" as="geometry">
            <mxRectangle width="40" height="20" as="alternateBounds" />
          </mxGeometry>
        </mxCell>
        <mxCell id="f48sKgCeAc52ZoEBVjOV-308" value="1" style="shape=partialRectangle;html=1;whiteSpace=wrap;connectable=0;strokeColor=inherit;overflow=hidden;fillColor=none;top=0;left=0;bottom=0;right=0;pointerEvents=1;fontSize=11;fontColor=#1303FF;" parent="f48sKgCeAc52ZoEBVjOV-303" vertex="1">
          <mxGeometry x="160" width="40" height="20" as="geometry">
            <mxRectangle width="40" height="20" as="alternateBounds" />
          </mxGeometry>
        </mxCell>
        <mxCell id="f48sKgCeAc52ZoEBVjOV-309" value="1" style="shape=partialRectangle;html=1;whiteSpace=wrap;connectable=0;strokeColor=inherit;overflow=hidden;fillColor=none;top=0;left=0;bottom=0;right=0;pointerEvents=1;fontSize=11;fontColor=#1303FF;" parent="f48sKgCeAc52ZoEBVjOV-303" vertex="1">
          <mxGeometry x="200" width="40" height="20" as="geometry">
            <mxRectangle width="40" height="20" as="alternateBounds" />
          </mxGeometry>
        </mxCell>
        <mxCell id="f48sKgCeAc52ZoEBVjOV-310" value="2" style="shape=partialRectangle;html=1;whiteSpace=wrap;connectable=0;strokeColor=inherit;overflow=hidden;fillColor=none;top=0;left=0;bottom=0;right=0;pointerEvents=1;fontSize=11;fontColor=#1303FF;" parent="f48sKgCeAc52ZoEBVjOV-303" vertex="1">
          <mxGeometry x="240" width="40" height="20" as="geometry">
            <mxRectangle width="40" height="20" as="alternateBounds" />
          </mxGeometry>
        </mxCell>
        <mxCell id="f48sKgCeAc52ZoEBVjOV-311" value="2" style="shape=partialRectangle;html=1;whiteSpace=wrap;connectable=0;strokeColor=inherit;overflow=hidden;fillColor=none;top=0;left=0;bottom=0;right=0;pointerEvents=1;fontSize=11;fontColor=#1303FF;" parent="f48sKgCeAc52ZoEBVjOV-303" vertex="1">
          <mxGeometry x="280" width="40" height="20" as="geometry">
            <mxRectangle width="40" height="20" as="alternateBounds" />
          </mxGeometry>
        </mxCell>
        <mxCell id="f48sKgCeAc52ZoEBVjOV-312" value="3" style="shape=partialRectangle;html=1;whiteSpace=wrap;connectable=0;strokeColor=inherit;overflow=hidden;fillColor=none;top=0;left=0;bottom=0;right=0;pointerEvents=1;fontSize=11;fontColor=#1303FF;" parent="f48sKgCeAc52ZoEBVjOV-303" vertex="1">
          <mxGeometry x="320" width="40" height="20" as="geometry">
            <mxRectangle width="40" height="20" as="alternateBounds" />
          </mxGeometry>
        </mxCell>
        <mxCell id="f48sKgCeAc52ZoEBVjOV-313" value="3" style="shape=partialRectangle;html=1;whiteSpace=wrap;connectable=0;strokeColor=inherit;overflow=hidden;fillColor=none;top=0;left=0;bottom=0;right=0;pointerEvents=1;fontSize=11;fontColor=#1303FF;" parent="f48sKgCeAc52ZoEBVjOV-303" vertex="1">
          <mxGeometry x="360" width="40" height="20" as="geometry">
            <mxRectangle width="40" height="20" as="alternateBounds" />
          </mxGeometry>
        </mxCell>
        <mxCell id="f48sKgCeAc52ZoEBVjOV-314" value="4" style="shape=partialRectangle;html=1;whiteSpace=wrap;connectable=0;strokeColor=inherit;overflow=hidden;fillColor=none;top=0;left=0;bottom=0;right=0;pointerEvents=1;fontSize=11;fontColor=#1303FF;" parent="f48sKgCeAc52ZoEBVjOV-303" vertex="1">
          <mxGeometry x="400" width="40" height="20" as="geometry">
            <mxRectangle width="40" height="20" as="alternateBounds" />
          </mxGeometry>
        </mxCell>
        <mxCell id="f48sKgCeAc52ZoEBVjOV-315" value="4" style="shape=partialRectangle;html=1;whiteSpace=wrap;connectable=0;strokeColor=inherit;overflow=hidden;fillColor=none;top=0;left=0;bottom=0;right=0;pointerEvents=1;fontSize=11;fontColor=#1303FF;" parent="f48sKgCeAc52ZoEBVjOV-303" vertex="1">
          <mxGeometry x="440" width="40" height="20" as="geometry">
            <mxRectangle width="40" height="20" as="alternateBounds" />
          </mxGeometry>
        </mxCell>
        <mxCell id="f48sKgCeAc52ZoEBVjOV-316" value="4" style="shape=partialRectangle;html=1;whiteSpace=wrap;connectable=0;strokeColor=inherit;overflow=hidden;fillColor=none;top=0;left=0;bottom=0;right=0;pointerEvents=1;fontSize=11;fontColor=#1303FF;" parent="f48sKgCeAc52ZoEBVjOV-303" vertex="1">
          <mxGeometry x="480" width="40" height="20" as="geometry">
            <mxRectangle width="40" height="20" as="alternateBounds" />
          </mxGeometry>
        </mxCell>
        <mxCell id="f48sKgCeAc52ZoEBVjOV-317" value="" style="shape=flexArrow;endArrow=classic;html=1;rounded=0;fontColor=#B5739D;strokeColor=#B5739D;" parent="1" edge="1">
          <mxGeometry width="50" height="50" relative="1" as="geometry">
            <mxPoint x="320" y="640" as="sourcePoint" />
            <mxPoint x="430" y="640" as="targetPoint" />
          </mxGeometry>
        </mxCell>
        <mxCell id="f48sKgCeAc52ZoEBVjOV-318" value="1" style="edgeLabel;html=1;align=center;verticalAlign=middle;resizable=0;points=[];labelBackgroundColor=none;fontColor=#B5739D;fontSize=24;fontStyle=1" parent="f48sKgCeAc52ZoEBVjOV-317" vertex="1" connectable="0">
          <mxGeometry x="0.1318" y="1" relative="1" as="geometry">
            <mxPoint x="-12" y="-19" as="offset" />
          </mxGeometry>
        </mxCell>
        <mxCell id="f48sKgCeAc52ZoEBVjOV-319" value="" style="shape=flexArrow;endArrow=classic;html=1;rounded=0;fontColor=#B5739D;strokeColor=#B5739D;" parent="1" edge="1">
          <mxGeometry width="50" height="50" relative="1" as="geometry">
            <mxPoint x="700" y="690" as="sourcePoint" />
            <mxPoint x="700" y="750" as="targetPoint" />
          </mxGeometry>
        </mxCell>
        <mxCell id="f48sKgCeAc52ZoEBVjOV-320" value="2" style="edgeLabel;html=1;align=center;verticalAlign=middle;resizable=0;points=[];labelBackgroundColor=none;fontColor=#B5739D;fontSize=24;fontStyle=1" parent="f48sKgCeAc52ZoEBVjOV-319" vertex="1" connectable="0">
          <mxGeometry x="0.1318" y="1" relative="1" as="geometry">
            <mxPoint x="19" y="-14" as="offset" />
          </mxGeometry>
        </mxCell>
        <mxCell id="f48sKgCeAc52ZoEBVjOV-39" value="" style="shape=table;startSize=0;container=1;collapsible=0;childLayout=tableLayout;fontSize=16;fontFamily=Times New Roman;" parent="1" vertex="1">
          <mxGeometry x="440" y="80" width="590.0000000000005" height="80" as="geometry" />
        </mxCell>
        <mxCell id="f48sKgCeAc52ZoEBVjOV-40" value="" style="shape=tableRow;horizontal=0;startSize=0;swimlaneHead=0;swimlaneBody=0;strokeColor=inherit;top=0;left=0;bottom=0;right=0;collapsible=0;dropTarget=0;fillColor=none;points=[[0,0.5],[1,0.5]];portConstraint=eastwest;fontSize=11;fontColor=#B3B3B3;fontFamily=Times New Roman;" parent="f48sKgCeAc52ZoEBVjOV-39" vertex="1">
          <mxGeometry width="590.0000000000005" height="20" as="geometry" />
        </mxCell>
        <mxCell id="f48sKgCeAc52ZoEBVjOV-321" value="&lt;font style=&quot;font-size: 12px;&quot; color=&quot;#000000&quot;&gt;Sort Index&lt;/font&gt;" style="shape=partialRectangle;html=1;whiteSpace=wrap;connectable=0;strokeColor=inherit;overflow=hidden;fillColor=none;top=0;left=0;bottom=0;right=0;pointerEvents=1;fontSize=11;fontColor=#B3B3B3;fontFamily=Times New Roman;" parent="f48sKgCeAc52ZoEBVjOV-40" vertex="1">
          <mxGeometry width="70" height="20" as="geometry">
            <mxRectangle width="70" height="20" as="alternateBounds" />
          </mxGeometry>
        </mxCell>
        <mxCell id="f48sKgCeAc52ZoEBVjOV-41" value="0&lt;span style=&quot;white-space: pre; font-size: 11px;&quot;&gt;&#x9;&lt;/span&gt;" style="shape=partialRectangle;html=1;whiteSpace=wrap;connectable=0;strokeColor=inherit;overflow=hidden;fillColor=none;top=0;left=0;bottom=0;right=0;pointerEvents=1;fontSize=11;fontColor=#B3B3B3;fontFamily=Times New Roman;" parent="f48sKgCeAc52ZoEBVjOV-40" vertex="1">
          <mxGeometry x="70" width="40" height="20" as="geometry">
            <mxRectangle width="40" height="20" as="alternateBounds" />
          </mxGeometry>
        </mxCell>
        <mxCell id="f48sKgCeAc52ZoEBVjOV-42" value="1" style="shape=partialRectangle;html=1;whiteSpace=wrap;connectable=0;strokeColor=inherit;overflow=hidden;fillColor=none;top=0;left=0;bottom=0;right=0;pointerEvents=1;fontSize=11;fontColor=#B3B3B3;fontFamily=Times New Roman;" parent="f48sKgCeAc52ZoEBVjOV-40" vertex="1">
          <mxGeometry x="110" width="40" height="20" as="geometry">
            <mxRectangle width="40" height="20" as="alternateBounds" />
          </mxGeometry>
        </mxCell>
        <mxCell id="f48sKgCeAc52ZoEBVjOV-43" value="2" style="shape=partialRectangle;html=1;whiteSpace=wrap;connectable=0;strokeColor=inherit;overflow=hidden;fillColor=none;top=0;left=0;bottom=0;right=0;pointerEvents=1;fontSize=11;fontColor=#B3B3B3;fontFamily=Times New Roman;" parent="f48sKgCeAc52ZoEBVjOV-40" vertex="1">
          <mxGeometry x="150" width="40" height="20" as="geometry">
            <mxRectangle width="40" height="20" as="alternateBounds" />
          </mxGeometry>
        </mxCell>
        <mxCell id="f48sKgCeAc52ZoEBVjOV-52" value="3" style="shape=partialRectangle;html=1;whiteSpace=wrap;connectable=0;strokeColor=inherit;overflow=hidden;fillColor=none;top=0;left=0;bottom=0;right=0;pointerEvents=1;fontSize=11;fontColor=#B3B3B3;fontFamily=Times New Roman;" parent="f48sKgCeAc52ZoEBVjOV-40" vertex="1">
          <mxGeometry x="190" width="40" height="20" as="geometry">
            <mxRectangle width="40" height="20" as="alternateBounds" />
          </mxGeometry>
        </mxCell>
        <mxCell id="f48sKgCeAc52ZoEBVjOV-54" value="4" style="shape=partialRectangle;html=1;whiteSpace=wrap;connectable=0;strokeColor=inherit;overflow=hidden;fillColor=none;top=0;left=0;bottom=0;right=0;pointerEvents=1;fontSize=11;fontColor=#B3B3B3;fontFamily=Times New Roman;" parent="f48sKgCeAc52ZoEBVjOV-40" vertex="1">
          <mxGeometry x="230" width="40" height="20" as="geometry">
            <mxRectangle width="40" height="20" as="alternateBounds" />
          </mxGeometry>
        </mxCell>
        <mxCell id="f48sKgCeAc52ZoEBVjOV-56" value="5" style="shape=partialRectangle;html=1;whiteSpace=wrap;connectable=0;strokeColor=inherit;overflow=hidden;fillColor=none;top=0;left=0;bottom=0;right=0;pointerEvents=1;fontSize=11;fontColor=#B3B3B3;fontFamily=Times New Roman;" parent="f48sKgCeAc52ZoEBVjOV-40" vertex="1">
          <mxGeometry x="270" width="40" height="20" as="geometry">
            <mxRectangle width="40" height="20" as="alternateBounds" />
          </mxGeometry>
        </mxCell>
        <mxCell id="f48sKgCeAc52ZoEBVjOV-58" value="6" style="shape=partialRectangle;html=1;whiteSpace=wrap;connectable=0;strokeColor=inherit;overflow=hidden;fillColor=none;top=0;left=0;bottom=0;right=0;pointerEvents=1;fontSize=11;fontColor=#B3B3B3;fontFamily=Times New Roman;" parent="f48sKgCeAc52ZoEBVjOV-40" vertex="1">
          <mxGeometry x="310" width="40" height="20" as="geometry">
            <mxRectangle width="40" height="20" as="alternateBounds" />
          </mxGeometry>
        </mxCell>
        <mxCell id="f48sKgCeAc52ZoEBVjOV-60" value="7" style="shape=partialRectangle;html=1;whiteSpace=wrap;connectable=0;strokeColor=inherit;overflow=hidden;fillColor=none;top=0;left=0;bottom=0;right=0;pointerEvents=1;fontSize=11;fontColor=#B3B3B3;fontFamily=Times New Roman;" parent="f48sKgCeAc52ZoEBVjOV-40" vertex="1">
          <mxGeometry x="350" width="40" height="20" as="geometry">
            <mxRectangle width="40" height="20" as="alternateBounds" />
          </mxGeometry>
        </mxCell>
        <mxCell id="f48sKgCeAc52ZoEBVjOV-62" value="8" style="shape=partialRectangle;html=1;whiteSpace=wrap;connectable=0;strokeColor=inherit;overflow=hidden;fillColor=none;top=0;left=0;bottom=0;right=0;pointerEvents=1;fontSize=11;fontColor=#B3B3B3;fontFamily=Times New Roman;" parent="f48sKgCeAc52ZoEBVjOV-40" vertex="1">
          <mxGeometry x="390" width="40" height="20" as="geometry">
            <mxRectangle width="40" height="20" as="alternateBounds" />
          </mxGeometry>
        </mxCell>
        <mxCell id="f48sKgCeAc52ZoEBVjOV-64" value="9" style="shape=partialRectangle;html=1;whiteSpace=wrap;connectable=0;strokeColor=inherit;overflow=hidden;fillColor=none;top=0;left=0;bottom=0;right=0;pointerEvents=1;fontSize=11;fontColor=#B3B3B3;fontFamily=Times New Roman;" parent="f48sKgCeAc52ZoEBVjOV-40" vertex="1">
          <mxGeometry x="430" width="40" height="20" as="geometry">
            <mxRectangle width="40" height="20" as="alternateBounds" />
          </mxGeometry>
        </mxCell>
        <mxCell id="f48sKgCeAc52ZoEBVjOV-66" value="10" style="shape=partialRectangle;html=1;whiteSpace=wrap;connectable=0;strokeColor=inherit;overflow=hidden;fillColor=none;top=0;left=0;bottom=0;right=0;pointerEvents=1;fontSize=11;fontColor=#B3B3B3;fontFamily=Times New Roman;" parent="f48sKgCeAc52ZoEBVjOV-40" vertex="1">
          <mxGeometry x="470" width="40" height="20" as="geometry">
            <mxRectangle width="40" height="20" as="alternateBounds" />
          </mxGeometry>
        </mxCell>
        <mxCell id="f48sKgCeAc52ZoEBVjOV-98" value="11" style="shape=partialRectangle;html=1;whiteSpace=wrap;connectable=0;strokeColor=inherit;overflow=hidden;fillColor=none;top=0;left=0;bottom=0;right=0;pointerEvents=1;fontSize=11;fontColor=#B3B3B3;fontFamily=Times New Roman;" parent="f48sKgCeAc52ZoEBVjOV-40" vertex="1">
          <mxGeometry x="510" width="40" height="20" as="geometry">
            <mxRectangle width="40" height="20" as="alternateBounds" />
          </mxGeometry>
        </mxCell>
        <mxCell id="f48sKgCeAc52ZoEBVjOV-100" value="12" style="shape=partialRectangle;html=1;whiteSpace=wrap;connectable=0;strokeColor=inherit;overflow=hidden;fillColor=none;top=0;left=0;bottom=0;right=0;pointerEvents=1;fontSize=11;fontColor=#B3B3B3;fontFamily=Times New Roman;" parent="f48sKgCeAc52ZoEBVjOV-40" vertex="1">
          <mxGeometry x="550" width="40" height="20" as="geometry">
            <mxRectangle width="40" height="20" as="alternateBounds" />
          </mxGeometry>
        </mxCell>
        <mxCell id="f48sKgCeAc52ZoEBVjOV-131" style="shape=tableRow;horizontal=0;startSize=0;swimlaneHead=0;swimlaneBody=0;strokeColor=inherit;top=0;left=0;bottom=0;right=0;collapsible=0;dropTarget=0;fillColor=none;points=[[0,0.5],[1,0.5]];portConstraint=eastwest;fontSize=11;fontColor=#1303FF;flipV=0;flipH=1;fontFamily=Times New Roman;" parent="f48sKgCeAc52ZoEBVjOV-39" vertex="1">
          <mxGeometry y="20" width="590.0000000000005" height="20" as="geometry" />
        </mxCell>
        <mxCell id="f48sKgCeAc52ZoEBVjOV-323" value="&lt;font color=&quot;#000000&quot;&gt;Depth&lt;/font&gt;" style="shape=partialRectangle;html=1;whiteSpace=wrap;connectable=0;strokeColor=inherit;overflow=hidden;fillColor=none;top=0;left=0;bottom=0;right=0;pointerEvents=1;fontSize=12;fontColor=#1303FF;fontFamily=Times New Roman;" parent="f48sKgCeAc52ZoEBVjOV-131" vertex="1">
          <mxGeometry width="70" height="20" as="geometry">
            <mxRectangle width="70" height="20" as="alternateBounds" />
          </mxGeometry>
        </mxCell>
        <mxCell id="f48sKgCeAc52ZoEBVjOV-132" value="0" style="shape=partialRectangle;html=1;whiteSpace=wrap;connectable=0;strokeColor=inherit;overflow=hidden;fillColor=none;top=0;left=0;bottom=0;right=0;pointerEvents=1;fontSize=11;fontColor=#1303FF;fontFamily=Times New Roman;" parent="f48sKgCeAc52ZoEBVjOV-131" vertex="1">
          <mxGeometry x="70" width="40" height="20" as="geometry">
            <mxRectangle width="40" height="20" as="alternateBounds" />
          </mxGeometry>
        </mxCell>
        <mxCell id="f48sKgCeAc52ZoEBVjOV-133" value="1" style="shape=partialRectangle;html=1;whiteSpace=wrap;connectable=0;strokeColor=inherit;overflow=hidden;fillColor=none;top=0;left=0;bottom=0;right=0;pointerEvents=1;fontSize=11;fontColor=#1303FF;fontFamily=Times New Roman;" parent="f48sKgCeAc52ZoEBVjOV-131" vertex="1">
          <mxGeometry x="110" width="40" height="20" as="geometry">
            <mxRectangle width="40" height="20" as="alternateBounds" />
          </mxGeometry>
        </mxCell>
        <mxCell id="f48sKgCeAc52ZoEBVjOV-134" value="0" style="shape=partialRectangle;html=1;whiteSpace=wrap;connectable=0;strokeColor=inherit;overflow=hidden;fillColor=none;top=0;left=0;bottom=0;right=0;pointerEvents=1;fontSize=11;fontColor=#1303FF;fontFamily=Times New Roman;" parent="f48sKgCeAc52ZoEBVjOV-131" vertex="1">
          <mxGeometry x="150" width="40" height="20" as="geometry">
            <mxRectangle width="40" height="20" as="alternateBounds" />
          </mxGeometry>
        </mxCell>
        <mxCell id="f48sKgCeAc52ZoEBVjOV-135" value="1" style="shape=partialRectangle;html=1;whiteSpace=wrap;connectable=0;strokeColor=inherit;overflow=hidden;fillColor=none;top=0;left=0;bottom=0;right=0;pointerEvents=1;fontSize=11;fontColor=#1303FF;fontFamily=Times New Roman;" parent="f48sKgCeAc52ZoEBVjOV-131" vertex="1">
          <mxGeometry x="190" width="40" height="20" as="geometry">
            <mxRectangle width="40" height="20" as="alternateBounds" />
          </mxGeometry>
        </mxCell>
        <mxCell id="f48sKgCeAc52ZoEBVjOV-136" value="2" style="shape=partialRectangle;html=1;whiteSpace=wrap;connectable=0;strokeColor=inherit;overflow=hidden;fillColor=none;top=0;left=0;bottom=0;right=0;pointerEvents=1;fontSize=11;fontColor=#1303FF;fontFamily=Times New Roman;" parent="f48sKgCeAc52ZoEBVjOV-131" vertex="1">
          <mxGeometry x="230" width="40" height="20" as="geometry">
            <mxRectangle width="40" height="20" as="alternateBounds" />
          </mxGeometry>
        </mxCell>
        <mxCell id="f48sKgCeAc52ZoEBVjOV-137" value="2" style="shape=partialRectangle;html=1;whiteSpace=wrap;connectable=0;strokeColor=inherit;overflow=hidden;fillColor=none;top=0;left=0;bottom=0;right=0;pointerEvents=1;fontSize=11;fontColor=#1303FF;fontFamily=Times New Roman;" parent="f48sKgCeAc52ZoEBVjOV-131" vertex="1">
          <mxGeometry x="270" width="40" height="20" as="geometry">
            <mxRectangle width="40" height="20" as="alternateBounds" />
          </mxGeometry>
        </mxCell>
        <mxCell id="f48sKgCeAc52ZoEBVjOV-138" value="3" style="shape=partialRectangle;html=1;whiteSpace=wrap;connectable=0;strokeColor=inherit;overflow=hidden;fillColor=none;top=0;left=0;bottom=0;right=0;pointerEvents=1;fontSize=11;fontColor=#1303FF;fontFamily=Times New Roman;" parent="f48sKgCeAc52ZoEBVjOV-131" vertex="1">
          <mxGeometry x="310" width="40" height="20" as="geometry">
            <mxRectangle width="40" height="20" as="alternateBounds" />
          </mxGeometry>
        </mxCell>
        <mxCell id="f48sKgCeAc52ZoEBVjOV-139" value="3" style="shape=partialRectangle;html=1;whiteSpace=wrap;connectable=0;strokeColor=inherit;overflow=hidden;fillColor=none;top=0;left=0;bottom=0;right=0;pointerEvents=1;fontSize=11;fontColor=#1303FF;fontFamily=Times New Roman;" parent="f48sKgCeAc52ZoEBVjOV-131" vertex="1">
          <mxGeometry x="350" width="40" height="20" as="geometry">
            <mxRectangle width="40" height="20" as="alternateBounds" />
          </mxGeometry>
        </mxCell>
        <mxCell id="f48sKgCeAc52ZoEBVjOV-140" value="4" style="shape=partialRectangle;html=1;whiteSpace=wrap;connectable=0;strokeColor=inherit;overflow=hidden;fillColor=none;top=0;left=0;bottom=0;right=0;pointerEvents=1;fontSize=11;fontColor=#1303FF;fontFamily=Times New Roman;" parent="f48sKgCeAc52ZoEBVjOV-131" vertex="1">
          <mxGeometry x="390" width="40" height="20" as="geometry">
            <mxRectangle width="40" height="20" as="alternateBounds" />
          </mxGeometry>
        </mxCell>
        <mxCell id="f48sKgCeAc52ZoEBVjOV-141" value="4" style="shape=partialRectangle;html=1;whiteSpace=wrap;connectable=0;strokeColor=inherit;overflow=hidden;fillColor=none;top=0;left=0;bottom=0;right=0;pointerEvents=1;fontSize=11;fontColor=#1303FF;fontFamily=Times New Roman;" parent="f48sKgCeAc52ZoEBVjOV-131" vertex="1">
          <mxGeometry x="430" width="40" height="20" as="geometry">
            <mxRectangle width="40" height="20" as="alternateBounds" />
          </mxGeometry>
        </mxCell>
        <mxCell id="f48sKgCeAc52ZoEBVjOV-142" value="4" style="shape=partialRectangle;html=1;whiteSpace=wrap;connectable=0;strokeColor=inherit;overflow=hidden;fillColor=none;top=0;left=0;bottom=0;right=0;pointerEvents=1;fontSize=11;fontColor=#1303FF;fontFamily=Times New Roman;" parent="f48sKgCeAc52ZoEBVjOV-131" vertex="1">
          <mxGeometry x="470" width="40" height="20" as="geometry">
            <mxRectangle width="40" height="20" as="alternateBounds" />
          </mxGeometry>
        </mxCell>
        <mxCell id="f48sKgCeAc52ZoEBVjOV-143" value="0" style="shape=partialRectangle;html=1;whiteSpace=wrap;connectable=0;strokeColor=inherit;overflow=hidden;fillColor=none;top=0;left=0;bottom=0;right=0;pointerEvents=1;fontSize=11;fontColor=#1303FF;fontFamily=Times New Roman;" parent="f48sKgCeAc52ZoEBVjOV-131" vertex="1">
          <mxGeometry x="510" width="40" height="20" as="geometry">
            <mxRectangle width="40" height="20" as="alternateBounds" />
          </mxGeometry>
        </mxCell>
        <mxCell id="f48sKgCeAc52ZoEBVjOV-144" value="1" style="shape=partialRectangle;html=1;whiteSpace=wrap;connectable=0;strokeColor=inherit;overflow=hidden;fillColor=none;top=0;left=0;bottom=0;right=0;pointerEvents=1;fontSize=11;fontColor=#1303FF;fontFamily=Times New Roman;" parent="f48sKgCeAc52ZoEBVjOV-131" vertex="1">
          <mxGeometry x="550" width="40" height="20" as="geometry">
            <mxRectangle width="40" height="20" as="alternateBounds" />
          </mxGeometry>
        </mxCell>
        <mxCell id="f48sKgCeAc52ZoEBVjOV-48" value="" style="shape=tableRow;horizontal=0;startSize=0;swimlaneHead=0;swimlaneBody=0;strokeColor=inherit;top=0;left=0;bottom=0;right=0;collapsible=0;dropTarget=0;fillColor=none;points=[[0,0.5],[1,0.5]];portConstraint=eastwest;fontSize=12;fontFamily=Times New Roman;" parent="f48sKgCeAc52ZoEBVjOV-39" vertex="1">
          <mxGeometry y="40" width="590.0000000000005" height="40" as="geometry" />
        </mxCell>
        <mxCell id="f48sKgCeAc52ZoEBVjOV-322" value="Node Handle" style="shape=partialRectangle;html=1;whiteSpace=wrap;connectable=0;strokeColor=inherit;overflow=hidden;fillColor=none;top=0;left=0;bottom=0;right=0;pointerEvents=1;fontSize=12;fontFamily=Times New Roman;" parent="f48sKgCeAc52ZoEBVjOV-48" vertex="1">
          <mxGeometry width="70" height="40" as="geometry">
            <mxRectangle width="70" height="40" as="alternateBounds" />
          </mxGeometry>
        </mxCell>
        <mxCell id="f48sKgCeAc52ZoEBVjOV-49" value="0" style="shape=partialRectangle;html=1;whiteSpace=wrap;connectable=0;strokeColor=inherit;overflow=hidden;fillColor=none;top=0;left=0;bottom=0;right=0;pointerEvents=1;fontSize=12;fontFamily=Times New Roman;" parent="f48sKgCeAc52ZoEBVjOV-48" vertex="1">
          <mxGeometry x="70" width="40" height="40" as="geometry">
            <mxRectangle width="40" height="40" as="alternateBounds" />
          </mxGeometry>
        </mxCell>
        <mxCell id="f48sKgCeAc52ZoEBVjOV-50" value="1" style="shape=partialRectangle;html=1;whiteSpace=wrap;connectable=0;strokeColor=inherit;overflow=hidden;fillColor=none;top=0;left=0;bottom=0;right=0;pointerEvents=1;fontSize=12;fontFamily=Times New Roman;" parent="f48sKgCeAc52ZoEBVjOV-48" vertex="1">
          <mxGeometry x="110" width="40" height="40" as="geometry">
            <mxRectangle width="40" height="40" as="alternateBounds" />
          </mxGeometry>
        </mxCell>
        <mxCell id="f48sKgCeAc52ZoEBVjOV-51" value="2" style="shape=partialRectangle;html=1;whiteSpace=wrap;connectable=0;strokeColor=inherit;overflow=hidden;fillColor=none;top=0;left=0;bottom=0;right=0;pointerEvents=1;fontSize=12;fontFamily=Times New Roman;" parent="f48sKgCeAc52ZoEBVjOV-48" vertex="1">
          <mxGeometry x="150" width="40" height="40" as="geometry">
            <mxRectangle width="40" height="40" as="alternateBounds" />
          </mxGeometry>
        </mxCell>
        <mxCell id="f48sKgCeAc52ZoEBVjOV-53" value="7" style="shape=partialRectangle;html=1;whiteSpace=wrap;connectable=0;strokeColor=inherit;overflow=hidden;fillColor=none;top=0;left=0;bottom=0;right=0;pointerEvents=1;fontSize=12;fontFamily=Times New Roman;" parent="f48sKgCeAc52ZoEBVjOV-48" vertex="1">
          <mxGeometry x="190" width="40" height="40" as="geometry">
            <mxRectangle width="40" height="40" as="alternateBounds" />
          </mxGeometry>
        </mxCell>
        <mxCell id="f48sKgCeAc52ZoEBVjOV-55" value="3" style="shape=partialRectangle;html=1;whiteSpace=wrap;connectable=0;strokeColor=inherit;overflow=hidden;fillColor=none;top=0;left=0;bottom=0;right=0;pointerEvents=1;fontSize=12;fontFamily=Times New Roman;" parent="f48sKgCeAc52ZoEBVjOV-48" vertex="1">
          <mxGeometry x="230" width="40" height="40" as="geometry">
            <mxRectangle width="40" height="40" as="alternateBounds" />
          </mxGeometry>
        </mxCell>
        <mxCell id="f48sKgCeAc52ZoEBVjOV-57" value="10" style="shape=partialRectangle;html=1;whiteSpace=wrap;connectable=0;strokeColor=inherit;overflow=hidden;fillColor=none;top=0;left=0;bottom=0;right=0;pointerEvents=1;fontSize=12;fontFamily=Times New Roman;" parent="f48sKgCeAc52ZoEBVjOV-48" vertex="1">
          <mxGeometry x="270" width="40" height="40" as="geometry">
            <mxRectangle width="40" height="40" as="alternateBounds" />
          </mxGeometry>
        </mxCell>
        <mxCell id="f48sKgCeAc52ZoEBVjOV-59" value="4" style="shape=partialRectangle;html=1;whiteSpace=wrap;connectable=0;strokeColor=inherit;overflow=hidden;fillColor=none;top=0;left=0;bottom=0;right=0;pointerEvents=1;fontSize=12;fontFamily=Times New Roman;" parent="f48sKgCeAc52ZoEBVjOV-48" vertex="1">
          <mxGeometry x="310" width="40" height="40" as="geometry">
            <mxRectangle width="40" height="40" as="alternateBounds" />
          </mxGeometry>
        </mxCell>
        <mxCell id="f48sKgCeAc52ZoEBVjOV-61" value="8" style="shape=partialRectangle;html=1;whiteSpace=wrap;connectable=0;strokeColor=inherit;overflow=hidden;fillColor=none;top=0;left=0;bottom=0;right=0;pointerEvents=1;fontSize=12;fontFamily=Times New Roman;" parent="f48sKgCeAc52ZoEBVjOV-48" vertex="1">
          <mxGeometry x="350" width="40" height="40" as="geometry">
            <mxRectangle width="40" height="40" as="alternateBounds" />
          </mxGeometry>
        </mxCell>
        <mxCell id="f48sKgCeAc52ZoEBVjOV-63" value="5" style="shape=partialRectangle;html=1;whiteSpace=wrap;connectable=0;strokeColor=inherit;overflow=hidden;fillColor=none;top=0;left=0;bottom=0;right=0;pointerEvents=1;fontSize=12;fontFamily=Times New Roman;" parent="f48sKgCeAc52ZoEBVjOV-48" vertex="1">
          <mxGeometry x="390" width="40" height="40" as="geometry">
            <mxRectangle width="40" height="40" as="alternateBounds" />
          </mxGeometry>
        </mxCell>
        <mxCell id="f48sKgCeAc52ZoEBVjOV-65" value="6" style="shape=partialRectangle;html=1;whiteSpace=wrap;connectable=0;strokeColor=inherit;overflow=hidden;fillColor=none;top=0;left=0;bottom=0;right=0;pointerEvents=1;fontSize=12;fontFamily=Times New Roman;" parent="f48sKgCeAc52ZoEBVjOV-48" vertex="1">
          <mxGeometry x="430" width="40" height="40" as="geometry">
            <mxRectangle width="40" height="40" as="alternateBounds" />
          </mxGeometry>
        </mxCell>
        <mxCell id="f48sKgCeAc52ZoEBVjOV-67" value="9" style="shape=partialRectangle;html=1;whiteSpace=wrap;connectable=0;strokeColor=inherit;overflow=hidden;fillColor=none;top=0;left=0;bottom=0;right=0;pointerEvents=1;fontSize=12;fontFamily=Times New Roman;" parent="f48sKgCeAc52ZoEBVjOV-48" vertex="1">
          <mxGeometry x="470" width="40" height="40" as="geometry">
            <mxRectangle width="40" height="40" as="alternateBounds" />
          </mxGeometry>
        </mxCell>
        <mxCell id="f48sKgCeAc52ZoEBVjOV-99" value="11" style="shape=partialRectangle;html=1;whiteSpace=wrap;connectable=0;strokeColor=inherit;overflow=hidden;fillColor=none;top=0;left=0;bottom=0;right=0;pointerEvents=1;fontSize=12;fontFamily=Times New Roman;" parent="f48sKgCeAc52ZoEBVjOV-48" vertex="1">
          <mxGeometry x="510" width="40" height="40" as="geometry">
            <mxRectangle width="40" height="40" as="alternateBounds" />
          </mxGeometry>
        </mxCell>
        <mxCell id="f48sKgCeAc52ZoEBVjOV-101" value="12" style="shape=partialRectangle;html=1;whiteSpace=wrap;connectable=0;strokeColor=inherit;overflow=hidden;fillColor=none;top=0;left=0;bottom=0;right=0;pointerEvents=1;fontSize=12;fontFamily=Times New Roman;" parent="f48sKgCeAc52ZoEBVjOV-48" vertex="1">
          <mxGeometry x="550" width="40" height="40" as="geometry">
            <mxRectangle width="40" height="40" as="alternateBounds" />
          </mxGeometry>
        </mxCell>
        <mxCell id="f48sKgCeAc52ZoEBVjOV-339" value="" style="shape=table;startSize=0;container=1;collapsible=0;childLayout=tableLayout;fontSize=16;fontFamily=Times New Roman;" parent="1" vertex="1">
          <mxGeometry x="440" y="200" width="590.0000000000005" height="80" as="geometry" />
        </mxCell>
        <mxCell id="f48sKgCeAc52ZoEBVjOV-340" value="" style="shape=tableRow;horizontal=0;startSize=0;swimlaneHead=0;swimlaneBody=0;strokeColor=inherit;top=0;left=0;bottom=0;right=0;collapsible=0;dropTarget=0;fillColor=none;points=[[0,0.5],[1,0.5]];portConstraint=eastwest;fontSize=11;fontColor=#B3B3B3;fontFamily=Times New Roman;" parent="f48sKgCeAc52ZoEBVjOV-339" vertex="1">
          <mxGeometry width="590.0000000000005" height="20" as="geometry" />
        </mxCell>
        <mxCell id="f48sKgCeAc52ZoEBVjOV-341" value="&lt;font style=&quot;font-size: 12px;&quot; color=&quot;#000000&quot;&gt;Sort Index&lt;/font&gt;" style="shape=partialRectangle;html=1;whiteSpace=wrap;connectable=0;strokeColor=inherit;overflow=hidden;fillColor=none;top=0;left=0;bottom=0;right=0;pointerEvents=1;fontSize=11;fontColor=#B3B3B3;fontFamily=Times New Roman;" parent="f48sKgCeAc52ZoEBVjOV-340" vertex="1">
          <mxGeometry width="70" height="20" as="geometry">
            <mxRectangle width="70" height="20" as="alternateBounds" />
          </mxGeometry>
        </mxCell>
        <mxCell id="f48sKgCeAc52ZoEBVjOV-342" value="0&lt;span style=&quot;white-space: pre; font-size: 11px;&quot;&gt;&#x9;&lt;/span&gt;" style="shape=partialRectangle;html=1;whiteSpace=wrap;connectable=0;strokeColor=inherit;overflow=hidden;fillColor=none;top=0;left=0;bottom=0;right=0;pointerEvents=1;fontSize=11;fontColor=#B3B3B3;fontFamily=Times New Roman;" parent="f48sKgCeAc52ZoEBVjOV-340" vertex="1">
          <mxGeometry x="70" width="40" height="20" as="geometry">
            <mxRectangle width="40" height="20" as="alternateBounds" />
          </mxGeometry>
        </mxCell>
        <mxCell id="f48sKgCeAc52ZoEBVjOV-343" value="1" style="shape=partialRectangle;html=1;whiteSpace=wrap;connectable=0;strokeColor=inherit;overflow=hidden;fillColor=none;top=0;left=0;bottom=0;right=0;pointerEvents=1;fontSize=11;fontColor=#B3B3B3;fontFamily=Times New Roman;" parent="f48sKgCeAc52ZoEBVjOV-340" vertex="1">
          <mxGeometry x="110" width="40" height="20" as="geometry">
            <mxRectangle width="40" height="20" as="alternateBounds" />
          </mxGeometry>
        </mxCell>
        <mxCell id="f48sKgCeAc52ZoEBVjOV-344" value="2" style="shape=partialRectangle;html=1;whiteSpace=wrap;connectable=0;strokeColor=inherit;overflow=hidden;fillColor=none;top=0;left=0;bottom=0;right=0;pointerEvents=1;fontSize=11;fontColor=#B3B3B3;fontFamily=Times New Roman;" parent="f48sKgCeAc52ZoEBVjOV-340" vertex="1">
          <mxGeometry x="150" width="40" height="20" as="geometry">
            <mxRectangle width="40" height="20" as="alternateBounds" />
          </mxGeometry>
        </mxCell>
        <mxCell id="f48sKgCeAc52ZoEBVjOV-345" value="3" style="shape=partialRectangle;html=1;whiteSpace=wrap;connectable=0;strokeColor=inherit;overflow=hidden;fillColor=none;top=0;left=0;bottom=0;right=0;pointerEvents=1;fontSize=11;fontColor=#B3B3B3;fontFamily=Times New Roman;" parent="f48sKgCeAc52ZoEBVjOV-340" vertex="1">
          <mxGeometry x="190" width="40" height="20" as="geometry">
            <mxRectangle width="40" height="20" as="alternateBounds" />
          </mxGeometry>
        </mxCell>
        <mxCell id="f48sKgCeAc52ZoEBVjOV-346" value="4" style="shape=partialRectangle;html=1;whiteSpace=wrap;connectable=0;strokeColor=inherit;overflow=hidden;fillColor=none;top=0;left=0;bottom=0;right=0;pointerEvents=1;fontSize=11;fontColor=#B3B3B3;fontFamily=Times New Roman;" parent="f48sKgCeAc52ZoEBVjOV-340" vertex="1">
          <mxGeometry x="230" width="40" height="20" as="geometry">
            <mxRectangle width="40" height="20" as="alternateBounds" />
          </mxGeometry>
        </mxCell>
        <mxCell id="f48sKgCeAc52ZoEBVjOV-347" value="5" style="shape=partialRectangle;html=1;whiteSpace=wrap;connectable=0;strokeColor=inherit;overflow=hidden;fillColor=none;top=0;left=0;bottom=0;right=0;pointerEvents=1;fontSize=11;fontColor=#B3B3B3;fontFamily=Times New Roman;" parent="f48sKgCeAc52ZoEBVjOV-340" vertex="1">
          <mxGeometry x="270" width="40" height="20" as="geometry">
            <mxRectangle width="40" height="20" as="alternateBounds" />
          </mxGeometry>
        </mxCell>
        <mxCell id="f48sKgCeAc52ZoEBVjOV-348" value="6" style="shape=partialRectangle;html=1;whiteSpace=wrap;connectable=0;strokeColor=inherit;overflow=hidden;fillColor=none;top=0;left=0;bottom=0;right=0;pointerEvents=1;fontSize=11;fontColor=#B3B3B3;fontFamily=Times New Roman;" parent="f48sKgCeAc52ZoEBVjOV-340" vertex="1">
          <mxGeometry x="310" width="40" height="20" as="geometry">
            <mxRectangle width="40" height="20" as="alternateBounds" />
          </mxGeometry>
        </mxCell>
        <mxCell id="f48sKgCeAc52ZoEBVjOV-349" value="7" style="shape=partialRectangle;html=1;whiteSpace=wrap;connectable=0;strokeColor=inherit;overflow=hidden;fillColor=none;top=0;left=0;bottom=0;right=0;pointerEvents=1;fontSize=11;fontColor=#B3B3B3;fontFamily=Times New Roman;" parent="f48sKgCeAc52ZoEBVjOV-340" vertex="1">
          <mxGeometry x="350" width="40" height="20" as="geometry">
            <mxRectangle width="40" height="20" as="alternateBounds" />
          </mxGeometry>
        </mxCell>
        <mxCell id="f48sKgCeAc52ZoEBVjOV-350" value="8" style="shape=partialRectangle;html=1;whiteSpace=wrap;connectable=0;strokeColor=inherit;overflow=hidden;fillColor=none;top=0;left=0;bottom=0;right=0;pointerEvents=1;fontSize=11;fontColor=#B3B3B3;fontFamily=Times New Roman;" parent="f48sKgCeAc52ZoEBVjOV-340" vertex="1">
          <mxGeometry x="390" width="40" height="20" as="geometry">
            <mxRectangle width="40" height="20" as="alternateBounds" />
          </mxGeometry>
        </mxCell>
        <mxCell id="f48sKgCeAc52ZoEBVjOV-351" value="9" style="shape=partialRectangle;html=1;whiteSpace=wrap;connectable=0;strokeColor=inherit;overflow=hidden;fillColor=none;top=0;left=0;bottom=0;right=0;pointerEvents=1;fontSize=11;fontColor=#B3B3B3;fontFamily=Times New Roman;" parent="f48sKgCeAc52ZoEBVjOV-340" vertex="1">
          <mxGeometry x="430" width="40" height="20" as="geometry">
            <mxRectangle width="40" height="20" as="alternateBounds" />
          </mxGeometry>
        </mxCell>
        <mxCell id="f48sKgCeAc52ZoEBVjOV-352" value="10" style="shape=partialRectangle;html=1;whiteSpace=wrap;connectable=0;strokeColor=inherit;overflow=hidden;fillColor=none;top=0;left=0;bottom=0;right=0;pointerEvents=1;fontSize=11;fontColor=#B3B3B3;fontFamily=Times New Roman;" parent="f48sKgCeAc52ZoEBVjOV-340" vertex="1">
          <mxGeometry x="470" width="40" height="20" as="geometry">
            <mxRectangle width="40" height="20" as="alternateBounds" />
          </mxGeometry>
        </mxCell>
        <mxCell id="f48sKgCeAc52ZoEBVjOV-353" value="11" style="shape=partialRectangle;html=1;whiteSpace=wrap;connectable=0;strokeColor=inherit;overflow=hidden;fillColor=none;top=0;left=0;bottom=0;right=0;pointerEvents=1;fontSize=11;fontColor=#B3B3B3;fontFamily=Times New Roman;" parent="f48sKgCeAc52ZoEBVjOV-340" vertex="1">
          <mxGeometry x="510" width="40" height="20" as="geometry">
            <mxRectangle width="40" height="20" as="alternateBounds" />
          </mxGeometry>
        </mxCell>
        <mxCell id="f48sKgCeAc52ZoEBVjOV-354" value="12" style="shape=partialRectangle;html=1;whiteSpace=wrap;connectable=0;strokeColor=inherit;overflow=hidden;fillColor=none;top=0;left=0;bottom=0;right=0;pointerEvents=1;fontSize=11;fontColor=#B3B3B3;fontFamily=Times New Roman;" parent="f48sKgCeAc52ZoEBVjOV-340" vertex="1">
          <mxGeometry x="550" width="40" height="20" as="geometry">
            <mxRectangle width="40" height="20" as="alternateBounds" />
          </mxGeometry>
        </mxCell>
        <mxCell id="f48sKgCeAc52ZoEBVjOV-355" style="shape=tableRow;horizontal=0;startSize=0;swimlaneHead=0;swimlaneBody=0;strokeColor=inherit;top=0;left=0;bottom=0;right=0;collapsible=0;dropTarget=0;fillColor=none;points=[[0,0.5],[1,0.5]];portConstraint=eastwest;fontSize=11;fontColor=#1303FF;flipV=0;flipH=1;fontFamily=Times New Roman;" parent="f48sKgCeAc52ZoEBVjOV-339" vertex="1">
          <mxGeometry y="20" width="590.0000000000005" height="20" as="geometry" />
        </mxCell>
        <mxCell id="f48sKgCeAc52ZoEBVjOV-356" value="&lt;font color=&quot;#000000&quot;&gt;Depth&lt;/font&gt;" style="shape=partialRectangle;html=1;whiteSpace=wrap;connectable=0;strokeColor=inherit;overflow=hidden;fillColor=none;top=0;left=0;bottom=0;right=0;pointerEvents=1;fontSize=12;fontColor=#1303FF;fontFamily=Times New Roman;" parent="f48sKgCeAc52ZoEBVjOV-355" vertex="1">
          <mxGeometry width="70" height="20" as="geometry">
            <mxRectangle width="70" height="20" as="alternateBounds" />
          </mxGeometry>
        </mxCell>
        <mxCell id="f48sKgCeAc52ZoEBVjOV-357" value="0" style="shape=partialRectangle;html=1;whiteSpace=wrap;connectable=0;strokeColor=inherit;overflow=hidden;fillColor=none;top=0;left=0;bottom=0;right=0;pointerEvents=1;fontSize=11;fontColor=#1303FF;fontFamily=Times New Roman;" parent="f48sKgCeAc52ZoEBVjOV-355" vertex="1">
          <mxGeometry x="70" width="40" height="20" as="geometry">
            <mxRectangle width="40" height="20" as="alternateBounds" />
          </mxGeometry>
        </mxCell>
        <mxCell id="f48sKgCeAc52ZoEBVjOV-358" value="0" style="shape=partialRectangle;html=1;whiteSpace=wrap;connectable=0;strokeColor=inherit;overflow=hidden;fillColor=none;top=0;left=0;bottom=0;right=0;pointerEvents=1;fontSize=11;fontColor=#1303FF;fontFamily=Times New Roman;" parent="f48sKgCeAc52ZoEBVjOV-355" vertex="1">
          <mxGeometry x="110" width="40" height="20" as="geometry">
            <mxRectangle width="40" height="20" as="alternateBounds" />
          </mxGeometry>
        </mxCell>
        <mxCell id="f48sKgCeAc52ZoEBVjOV-359" value="0" style="shape=partialRectangle;html=1;whiteSpace=wrap;connectable=0;strokeColor=inherit;overflow=hidden;fillColor=none;top=0;left=0;bottom=0;right=0;pointerEvents=1;fontSize=11;fontColor=#1303FF;fontFamily=Times New Roman;" parent="f48sKgCeAc52ZoEBVjOV-355" vertex="1">
          <mxGeometry x="150" width="40" height="20" as="geometry">
            <mxRectangle width="40" height="20" as="alternateBounds" />
          </mxGeometry>
        </mxCell>
        <mxCell id="f48sKgCeAc52ZoEBVjOV-360" value="1" style="shape=partialRectangle;html=1;whiteSpace=wrap;connectable=0;strokeColor=inherit;overflow=hidden;fillColor=none;top=0;left=0;bottom=0;right=0;pointerEvents=1;fontSize=11;fontColor=#1303FF;fontFamily=Times New Roman;" parent="f48sKgCeAc52ZoEBVjOV-355" vertex="1">
          <mxGeometry x="190" width="40" height="20" as="geometry">
            <mxRectangle width="40" height="20" as="alternateBounds" />
          </mxGeometry>
        </mxCell>
        <mxCell id="f48sKgCeAc52ZoEBVjOV-361" value="1" style="shape=partialRectangle;html=1;whiteSpace=wrap;connectable=0;strokeColor=inherit;overflow=hidden;fillColor=none;top=0;left=0;bottom=0;right=0;pointerEvents=1;fontSize=11;fontColor=#1303FF;fontFamily=Times New Roman;" parent="f48sKgCeAc52ZoEBVjOV-355" vertex="1">
          <mxGeometry x="230" width="40" height="20" as="geometry">
            <mxRectangle width="40" height="20" as="alternateBounds" />
          </mxGeometry>
        </mxCell>
        <mxCell id="f48sKgCeAc52ZoEBVjOV-362" value="1" style="shape=partialRectangle;html=1;whiteSpace=wrap;connectable=0;strokeColor=inherit;overflow=hidden;fillColor=none;top=0;left=0;bottom=0;right=0;pointerEvents=1;fontSize=11;fontColor=#1303FF;fontFamily=Times New Roman;" parent="f48sKgCeAc52ZoEBVjOV-355" vertex="1">
          <mxGeometry x="270" width="40" height="20" as="geometry">
            <mxRectangle width="40" height="20" as="alternateBounds" />
          </mxGeometry>
        </mxCell>
        <mxCell id="f48sKgCeAc52ZoEBVjOV-363" value="2" style="shape=partialRectangle;html=1;whiteSpace=wrap;connectable=0;strokeColor=inherit;overflow=hidden;fillColor=none;top=0;left=0;bottom=0;right=0;pointerEvents=1;fontSize=11;fontColor=#1303FF;fontFamily=Times New Roman;" parent="f48sKgCeAc52ZoEBVjOV-355" vertex="1">
          <mxGeometry x="310" width="40" height="20" as="geometry">
            <mxRectangle width="40" height="20" as="alternateBounds" />
          </mxGeometry>
        </mxCell>
        <mxCell id="f48sKgCeAc52ZoEBVjOV-364" value="2" style="shape=partialRectangle;html=1;whiteSpace=wrap;connectable=0;strokeColor=inherit;overflow=hidden;fillColor=none;top=0;left=0;bottom=0;right=0;pointerEvents=1;fontSize=11;fontColor=#1303FF;fontFamily=Times New Roman;" parent="f48sKgCeAc52ZoEBVjOV-355" vertex="1">
          <mxGeometry x="350" width="40" height="20" as="geometry">
            <mxRectangle width="40" height="20" as="alternateBounds" />
          </mxGeometry>
        </mxCell>
        <mxCell id="f48sKgCeAc52ZoEBVjOV-365" value="3" style="shape=partialRectangle;html=1;whiteSpace=wrap;connectable=0;strokeColor=inherit;overflow=hidden;fillColor=none;top=0;left=0;bottom=0;right=0;pointerEvents=1;fontSize=11;fontColor=#1303FF;fontFamily=Times New Roman;" parent="f48sKgCeAc52ZoEBVjOV-355" vertex="1">
          <mxGeometry x="390" width="40" height="20" as="geometry">
            <mxRectangle width="40" height="20" as="alternateBounds" />
          </mxGeometry>
        </mxCell>
        <mxCell id="f48sKgCeAc52ZoEBVjOV-366" value="3" style="shape=partialRectangle;html=1;whiteSpace=wrap;connectable=0;strokeColor=inherit;overflow=hidden;fillColor=none;top=0;left=0;bottom=0;right=0;pointerEvents=1;fontSize=11;fontColor=#1303FF;fontFamily=Times New Roman;" parent="f48sKgCeAc52ZoEBVjOV-355" vertex="1">
          <mxGeometry x="430" width="40" height="20" as="geometry">
            <mxRectangle width="40" height="20" as="alternateBounds" />
          </mxGeometry>
        </mxCell>
        <mxCell id="f48sKgCeAc52ZoEBVjOV-367" value="4" style="shape=partialRectangle;html=1;whiteSpace=wrap;connectable=0;strokeColor=inherit;overflow=hidden;fillColor=none;top=0;left=0;bottom=0;right=0;pointerEvents=1;fontSize=11;fontColor=#1303FF;fontFamily=Times New Roman;" parent="f48sKgCeAc52ZoEBVjOV-355" vertex="1">
          <mxGeometry x="470" width="40" height="20" as="geometry">
            <mxRectangle width="40" height="20" as="alternateBounds" />
          </mxGeometry>
        </mxCell>
        <mxCell id="f48sKgCeAc52ZoEBVjOV-368" value="4" style="shape=partialRectangle;html=1;whiteSpace=wrap;connectable=0;strokeColor=inherit;overflow=hidden;fillColor=none;top=0;left=0;bottom=0;right=0;pointerEvents=1;fontSize=11;fontColor=#1303FF;fontFamily=Times New Roman;" parent="f48sKgCeAc52ZoEBVjOV-355" vertex="1">
          <mxGeometry x="510" width="40" height="20" as="geometry">
            <mxRectangle width="40" height="20" as="alternateBounds" />
          </mxGeometry>
        </mxCell>
        <mxCell id="f48sKgCeAc52ZoEBVjOV-369" value="4" style="shape=partialRectangle;html=1;whiteSpace=wrap;connectable=0;strokeColor=inherit;overflow=hidden;fillColor=none;top=0;left=0;bottom=0;right=0;pointerEvents=1;fontSize=11;fontColor=#1303FF;fontFamily=Times New Roman;" parent="f48sKgCeAc52ZoEBVjOV-355" vertex="1">
          <mxGeometry x="550" width="40" height="20" as="geometry">
            <mxRectangle width="40" height="20" as="alternateBounds" />
          </mxGeometry>
        </mxCell>
        <mxCell id="f48sKgCeAc52ZoEBVjOV-370" value="" style="shape=tableRow;horizontal=0;startSize=0;swimlaneHead=0;swimlaneBody=0;strokeColor=inherit;top=0;left=0;bottom=0;right=0;collapsible=0;dropTarget=0;fillColor=none;points=[[0,0.5],[1,0.5]];portConstraint=eastwest;fontSize=12;fontFamily=Times New Roman;" parent="f48sKgCeAc52ZoEBVjOV-339" vertex="1">
          <mxGeometry y="40" width="590.0000000000005" height="40" as="geometry" />
        </mxCell>
        <mxCell id="f48sKgCeAc52ZoEBVjOV-371" value="Node Handle" style="shape=partialRectangle;html=1;whiteSpace=wrap;connectable=0;strokeColor=inherit;overflow=hidden;fillColor=none;top=0;left=0;bottom=0;right=0;pointerEvents=1;fontSize=12;fontFamily=Times New Roman;" parent="f48sKgCeAc52ZoEBVjOV-370" vertex="1">
          <mxGeometry width="70" height="40" as="geometry">
            <mxRectangle width="70" height="40" as="alternateBounds" />
          </mxGeometry>
        </mxCell>
        <mxCell id="f48sKgCeAc52ZoEBVjOV-372" value="0" style="shape=partialRectangle;html=1;whiteSpace=wrap;connectable=0;strokeColor=inherit;overflow=hidden;fillColor=none;top=0;left=0;bottom=0;right=0;pointerEvents=1;fontSize=12;fontFamily=Times New Roman;" parent="f48sKgCeAc52ZoEBVjOV-370" vertex="1">
          <mxGeometry x="70" width="40" height="40" as="geometry">
            <mxRectangle width="40" height="40" as="alternateBounds" />
          </mxGeometry>
        </mxCell>
        <mxCell id="f48sKgCeAc52ZoEBVjOV-373" value="2" style="shape=partialRectangle;html=1;whiteSpace=wrap;connectable=0;strokeColor=inherit;overflow=hidden;fillColor=none;top=0;left=0;bottom=0;right=0;pointerEvents=1;fontSize=12;fontFamily=Times New Roman;" parent="f48sKgCeAc52ZoEBVjOV-370" vertex="1">
          <mxGeometry x="110" width="40" height="40" as="geometry">
            <mxRectangle width="40" height="40" as="alternateBounds" />
          </mxGeometry>
        </mxCell>
        <mxCell id="f48sKgCeAc52ZoEBVjOV-374" value="11" style="shape=partialRectangle;html=1;whiteSpace=wrap;connectable=0;strokeColor=inherit;overflow=hidden;fillColor=none;top=0;left=0;bottom=0;right=0;pointerEvents=1;fontSize=12;fontFamily=Times New Roman;" parent="f48sKgCeAc52ZoEBVjOV-370" vertex="1">
          <mxGeometry x="150" width="40" height="40" as="geometry">
            <mxRectangle width="40" height="40" as="alternateBounds" />
          </mxGeometry>
        </mxCell>
        <mxCell id="f48sKgCeAc52ZoEBVjOV-375" value="1" style="shape=partialRectangle;html=1;whiteSpace=wrap;connectable=0;strokeColor=inherit;overflow=hidden;fillColor=none;top=0;left=0;bottom=0;right=0;pointerEvents=1;fontSize=12;fontFamily=Times New Roman;" parent="f48sKgCeAc52ZoEBVjOV-370" vertex="1">
          <mxGeometry x="190" width="40" height="40" as="geometry">
            <mxRectangle width="40" height="40" as="alternateBounds" />
          </mxGeometry>
        </mxCell>
        <mxCell id="f48sKgCeAc52ZoEBVjOV-376" value="7" style="shape=partialRectangle;html=1;whiteSpace=wrap;connectable=0;strokeColor=inherit;overflow=hidden;fillColor=none;top=0;left=0;bottom=0;right=0;pointerEvents=1;fontSize=12;fontFamily=Times New Roman;" parent="f48sKgCeAc52ZoEBVjOV-370" vertex="1">
          <mxGeometry x="230" width="40" height="40" as="geometry">
            <mxRectangle width="40" height="40" as="alternateBounds" />
          </mxGeometry>
        </mxCell>
        <mxCell id="f48sKgCeAc52ZoEBVjOV-377" value="12" style="shape=partialRectangle;html=1;whiteSpace=wrap;connectable=0;strokeColor=inherit;overflow=hidden;fillColor=none;top=0;left=0;bottom=0;right=0;pointerEvents=1;fontSize=12;fontFamily=Times New Roman;" parent="f48sKgCeAc52ZoEBVjOV-370" vertex="1">
          <mxGeometry x="270" width="40" height="40" as="geometry">
            <mxRectangle width="40" height="40" as="alternateBounds" />
          </mxGeometry>
        </mxCell>
        <mxCell id="f48sKgCeAc52ZoEBVjOV-378" value="3" style="shape=partialRectangle;html=1;whiteSpace=wrap;connectable=0;strokeColor=inherit;overflow=hidden;fillColor=none;top=0;left=0;bottom=0;right=0;pointerEvents=1;fontSize=12;fontFamily=Times New Roman;" parent="f48sKgCeAc52ZoEBVjOV-370" vertex="1">
          <mxGeometry x="310" width="40" height="40" as="geometry">
            <mxRectangle width="40" height="40" as="alternateBounds" />
          </mxGeometry>
        </mxCell>
        <mxCell id="f48sKgCeAc52ZoEBVjOV-379" value="10" style="shape=partialRectangle;html=1;whiteSpace=wrap;connectable=0;strokeColor=inherit;overflow=hidden;fillColor=none;top=0;left=0;bottom=0;right=0;pointerEvents=1;fontSize=12;fontFamily=Times New Roman;" parent="f48sKgCeAc52ZoEBVjOV-370" vertex="1">
          <mxGeometry x="350" width="40" height="40" as="geometry">
            <mxRectangle width="40" height="40" as="alternateBounds" />
          </mxGeometry>
        </mxCell>
        <mxCell id="f48sKgCeAc52ZoEBVjOV-380" value="4" style="shape=partialRectangle;html=1;whiteSpace=wrap;connectable=0;strokeColor=inherit;overflow=hidden;fillColor=none;top=0;left=0;bottom=0;right=0;pointerEvents=1;fontSize=12;fontFamily=Times New Roman;" parent="f48sKgCeAc52ZoEBVjOV-370" vertex="1">
          <mxGeometry x="390" width="40" height="40" as="geometry">
            <mxRectangle width="40" height="40" as="alternateBounds" />
          </mxGeometry>
        </mxCell>
        <mxCell id="f48sKgCeAc52ZoEBVjOV-381" value="8" style="shape=partialRectangle;html=1;whiteSpace=wrap;connectable=0;strokeColor=inherit;overflow=hidden;fillColor=none;top=0;left=0;bottom=0;right=0;pointerEvents=1;fontSize=12;fontFamily=Times New Roman;" parent="f48sKgCeAc52ZoEBVjOV-370" vertex="1">
          <mxGeometry x="430" width="40" height="40" as="geometry">
            <mxRectangle width="40" height="40" as="alternateBounds" />
          </mxGeometry>
        </mxCell>
        <mxCell id="f48sKgCeAc52ZoEBVjOV-382" value="5" style="shape=partialRectangle;html=1;whiteSpace=wrap;connectable=0;strokeColor=inherit;overflow=hidden;fillColor=none;top=0;left=0;bottom=0;right=0;pointerEvents=1;fontSize=12;fontFamily=Times New Roman;" parent="f48sKgCeAc52ZoEBVjOV-370" vertex="1">
          <mxGeometry x="470" width="40" height="40" as="geometry">
            <mxRectangle width="40" height="40" as="alternateBounds" />
          </mxGeometry>
        </mxCell>
        <mxCell id="f48sKgCeAc52ZoEBVjOV-383" value="6" style="shape=partialRectangle;html=1;whiteSpace=wrap;connectable=0;strokeColor=inherit;overflow=hidden;fillColor=none;top=0;left=0;bottom=0;right=0;pointerEvents=1;fontSize=12;fontFamily=Times New Roman;" parent="f48sKgCeAc52ZoEBVjOV-370" vertex="1">
          <mxGeometry x="510" width="40" height="40" as="geometry">
            <mxRectangle width="40" height="40" as="alternateBounds" />
          </mxGeometry>
        </mxCell>
        <mxCell id="f48sKgCeAc52ZoEBVjOV-384" value="9" style="shape=partialRectangle;html=1;whiteSpace=wrap;connectable=0;strokeColor=inherit;overflow=hidden;fillColor=none;top=0;left=0;bottom=0;right=0;pointerEvents=1;fontSize=12;fontFamily=Times New Roman;" parent="f48sKgCeAc52ZoEBVjOV-370" vertex="1">
          <mxGeometry x="550" width="40" height="40" as="geometry">
            <mxRectangle width="40" height="40" as="alternateBounds" />
          </mxGeometry>
        </mxCell>
        <mxCell id="B2rP2i69ZGFOSq1-qhhJ-1" value="" style="endArrow=classic;html=1;rounded=0;" edge="1" parent="1">
          <mxGeometry width="50" height="50" relative="1" as="geometry">
            <mxPoint x="730" y="170" as="sourcePoint" />
            <mxPoint x="730" y="190" as="targetPoint" />
          </mxGeometry>
        </mxCell>
      </root>
    </mxGraphModel>
  </diagram>
</mxfile>
